Garima.ufo
<glyph name="uni1200" format="2">
  <advance width="705"/>
  <unicode hex="1200"/>
  <outline>
    <contour>
      <point x="429" y="94" type="curve" smooth="yes"/>
      <point x="449" y="94"/>
      <point x="462" y="102"/>
      <point x="481" y="153" type="curve" smooth="yes"/>
      <point x="551" y="347"/>
      <point x="628" y="494"/>
      <point x="628" y="557" type="curve" smooth="yes"/>
      <point x="628" y="590"/>
      <point x="606" y="608"/>
      <point x="578" y="608" type="curve" smooth="yes"/>
      <point x="548" y="608"/>
      <point x="523" y="588"/>
      <point x="518" y="560" type="curve"/>
      <point x="530" y="554"/>
      <point x="536" y="544"/>
      <point x="536" y="517" type="curve" smooth="yes"/>
      <point x="536" y="446"/>
      <point x="444" y="215"/>
      <point x="389" y="160" type="curve" smooth="yes"/>
      <point x="350" y="121"/>
      <point x="309" y="99"/>
      <point x="259" y="99" type="curve" smooth="yes"/>
      <point x="216" y="99"/>
      <point x="191" y="117"/>
      <point x="191" y="164" type="curve" smooth="yes"/>
      <point x="191" y="232"/>
      <point x="220" y="392"/>
      <point x="252" y="514" type="curve"/>
      <point x="268" y="520"/>
      <point x="277" y="530"/>
      <point x="277" y="547" type="curve" smooth="yes"/>
      <point x="277" y="578"/>
      <point x="218" y="609"/>
      <point x="174" y="609" type="curve" smooth="yes"/>
      <point x="146" y="609"/>
      <point x="134" y="584"/>
      <point x="140" y="565" type="curve"/>
      <point x="164" y="557"/>
      <point x="176" y="547"/>
      <point x="176" y="522" type="curve" smooth="yes"/>
      <point x="176" y="464"/>
      <point x="115" y="235"/>
      <point x="115" y="144" type="curve" smooth="yes"/>
      <point x="115" y="62"/>
      <point x="169" y="32"/>
      <point x="225" y="32" type="curve" smooth="yes"/>
      <point x="281" y="32"/>
      <point x="344" y="56"/>
      <point x="400" y="103" type="curve"/>
      <point x="407" y="98"/>
      <point x="418" y="94"/>
    </contour>
  </outline>
</glyph>
<glyph name="uni1204" format="2">
  <advance width="686"/>
  <unicode hex="1204"/>
  <outline>
    <contour>
      <point x="283" y="99" type="curve" smooth="yes"/>
      <point x="283" y="20"/>
      <point x="360" y="-11"/>
      <point x="426" y="-11" type="curve" smooth="yes"/>
      <point x="536" y="-11"/>
      <point x="607" y="55"/>
      <point x="607" y="120" type="curve" smooth="yes"/>
      <point x="607" y="180"/>
      <point x="501" y="250"/>
      <point x="364" y="245" type="curve"/>
      <point x="395" y="215" type="line"/>
      <point x="464" y="367"/>
      <point x="558" y="531"/>
      <point x="558" y="587" type="curve" smooth="yes"/>
      <point x="558" y="617"/>
      <point x="539" y="637"/>
      <point x="511" y="637" type="curve" smooth="yes"/>
      <point x="473" y="637"/>
      <point x="448" y="615"/>
      <point x="445" y="587" type="curve"/>
      <point x="457" y="581"/>
      <point x="463" y="572"/>
      <point x="463" y="553" type="curve" smooth="yes"/>
      <point x="463" y="519"/>
      <point x="436" y="441"/>
      <point x="410" y="412" type="curve" smooth="yes"/>
      <point x="367" y="364"/>
      <point x="314" y="329"/>
      <point x="244" y="329" type="curve" smooth="yes"/>
      <point x="203" y="329"/>
      <point x="184" y="347"/>
      <point x="184" y="387" type="curve" smooth="yes"/>
      <point x="184" y="438"/>
      <point x="191" y="485"/>
      <point x="202" y="535" type="curve"/>
      <point x="214" y="541"/>
      <point x="226" y="552"/>
      <point x="226" y="566" type="curve" smooth="yes"/>
      <point x="226" y="604"/>
      <point x="165" y="629"/>
      <point x="127" y="629" type="curve" smooth="yes"/>
      <point x="92" y="629"/>
      <point x="81" y="607"/>
      <point x="87" y="587" type="curve"/>
      <point x="112" y="579"/>
      <point x="125" y="570"/>
      <point x="125" y="551" type="curve" smooth="yes"/>
      <point x="125" y="502"/>
      <point x="105" y="421"/>
      <point x="105" y="370" type="curve" smooth="yes"/>
      <point x="105" y="301"/>
      <point x="139" y="263"/>
      <point x="194" y="263" type="curve" smooth="yes"/>
      <point x="246" y="263"/>
      <point x="308" y="285"/>
      <point x="383" y="333" type="curve"/>
      <point x="316" y="215"/>
      <point x="283" y="159"/>
    </contour>
    <contour>
      <point x="362" y="115" type="curve" smooth="yes"/>
      <point x="362" y="147"/>
      <point x="381" y="194"/>
      <point x="412" y="194" type="curve" smooth="yes"/>
      <point x="453" y="194"/>
      <point x="526" y="156"/>
      <point x="526" y="109" type="curve" smooth="yes"/>
      <point x="526" y="75"/>
      <point x="495" y="50"/>
      <point x="436" y="50" type="curve" smooth="yes"/>
      <point x="394" y="50"/>
      <point x="362" y="73"/>
    </contour>
  </outline>
</glyph>
<glyph name="uni1206" format="2">
  <advance width="921"/>
  <unicode hex="1206"/>
  <outline>
    <contour>
      <point x="705" y="585" type="curve" smooth="yes"/>
      <point x="742" y="585"/>
      <point x="771" y="559"/>
      <point x="771" y="518" type="curve" smooth="yes"/>
      <point x="771" y="464"/>
      <point x="740" y="419"/>
      <point x="683" y="419" type="curve" smooth="yes"/>
      <point x="636" y="419"/>
      <point x="592" y="444"/>
      <point x="592" y="502" type="curve" smooth="yes"/>
      <point x="592" y="548"/>
      <point x="634" y="585"/>
    </contour>
    <contour>
      <point x="532" y="547" type="curve" smooth="yes"/>
      <point x="511" y="477"/>
      <point x="447" y="218"/>
      <point x="389" y="160" type="curve" smooth="yes"/>
      <point x="350" y="121"/>
      <point x="309" y="99"/>
      <point x="259" y="99" type="curve" smooth="yes"/>
      <point x="216" y="99"/>
      <point x="191" y="117"/>
      <point x="191" y="164" type="curve" smooth="yes"/>
      <point x="191" y="232"/>
      <point x="220" y="392"/>
      <point x="252" y="514" type="curve"/>
      <point x="268" y="520"/>
      <point x="277" y="530"/>
      <point x="277" y="547" type="curve" smooth="yes"/>
      <point x="277" y="578"/>
      <point x="218" y="609"/>
      <point x="174" y="609" type="curve" smooth="yes"/>
      <point x="146" y="609"/>
      <point x="134" y="584"/>
      <point x="140" y="565" type="curve"/>
      <point x="164" y="557"/>
      <point x="176" y="547"/>
      <point x="176" y="522" type="curve" smooth="yes"/>
      <point x="176" y="464"/>
      <point x="115" y="235"/>
      <point x="115" y="144" type="curve" smooth="yes"/>
      <point x="115" y="62"/>
      <point x="169" y="32"/>
      <point x="225" y="32" type="curve" smooth="yes"/>
      <point x="281" y="32"/>
      <point x="344" y="56"/>
      <point x="400" y="103" type="curve"/>
      <point x="407" y="98"/>
      <point x="418" y="94"/>
      <point x="429" y="94" type="curve" smooth="yes"/>
      <point x="449" y="94"/>
      <point x="461" y="102"/>
      <point x="481" y="153" type="curve" smooth="yes"/>
      <point x="534" y="286"/>
      <point x="568" y="404"/>
      <point x="585" y="464" type="curve"/>
      <point x="561" y="407" type="line"/>
      <point x="590" y="386"/>
      <point x="637" y="360"/>
      <point x="689" y="360" type="curve" smooth="yes"/>
      <point x="784" y="360"/>
      <point x="849" y="446"/>
      <point x="849" y="529" type="curve" smooth="yes"/>
      <point x="849" y="590"/>
      <point x="799" y="640"/>
      <point x="714" y="640" type="curve" smooth="yes"/>
      <point x="618" y="640"/>
      <point x="548" y="601"/>
    </contour>
  </outline>
</glyph>
<glyph name="uni120F" format="2">
  <advance width="813"/>
  <unicode hex="120F"/>
  <outline>
    <contour>
      <point x="376" y="-16" type="curve"/>
      <point x="420" y="-12"/>
      <point x="594" y="3"/>
      <point x="666" y="8" type="curve"/>
      <point x="660" y="31" type="line"/>
      <point x="659" y="-45"/>
      <point x="679" y="-69"/>
      <point x="734" y="-69" type="curve" smooth="yes"/>
      <point x="747" y="-69"/>
      <point x="765" y="-67"/>
      <point x="777" y="-63" type="curve"/>
      <point x="768" y="-39"/>
      <point x="764" y="4"/>
      <point x="767" y="31" type="curve"/>
      <point x="734" y="43"/>
      <point x="689" y="54"/>
      <point x="679" y="54" type="curve" smooth="yes"/>
      <point x="652" y="54"/>
      <point x="431" y="36"/>
      <point x="363" y="30" type="curve"/>
      <point x="298" y="38"/>
      <point x="262" y="1"/>
      <point x="262" y="-48" type="curve" smooth="yes"/>
      <point x="262" y="-78"/>
      <point x="283" y="-99"/>
      <point x="321" y="-99" type="curve" smooth="yes"/>
      <point x="332" y="-99"/>
      <point x="345" y="-97"/>
      <point x="359" y="-93" type="curve"/>
      <point x="355" y="-65"/>
      <point x="362" y="-30"/>
    </contour>
    <contour>
      <point x="330" y="531" type="curve"/>
      <point x="342" y="535"/>
      <point x="370" y="542"/>
      <point x="394" y="533" type="curve"/>
      <point x="356" y="570" type="line"/>
      <point x="186" y="527"/>
      <point x="76" y="396"/>
      <point x="76" y="248" type="curve" smooth="yes"/>
      <point x="76" y="210"/>
      <point x="99" y="195"/>
      <point x="125" y="195" type="curve" smooth="yes"/>
      <point x="141" y="195"/>
      <point x="158" y="200"/>
      <point x="168" y="208" type="curve"/>
      <point x="164" y="218"/>
      <point x="160" y="243"/>
      <point x="160" y="262" type="curve" smooth="yes"/>
      <point x="160" y="427"/>
      <point x="299" y="524"/>
      <point x="405" y="524" type="curve" smooth="yes"/>
      <point x="446" y="524"/>
      <point x="520" y="464"/>
      <point x="520" y="369" type="curve" smooth="yes"/>
      <point x="520" y="276"/>
      <point x="489" y="136"/>
      <point x="489" y="46" type="curve" smooth="yes"/>
      <point x="489" y="18"/>
      <point x="507" y="4"/>
      <point x="536" y="4" type="curve" smooth="yes"/>
      <point x="558" y="4"/>
      <point x="574" y="6"/>
      <point x="586" y="13" type="curve"/>
      <point x="552" y="95"/>
      <point x="598" y="275"/>
      <point x="598" y="379" type="curve" smooth="yes"/>
      <point x="598" y="531"/>
      <point x="466" y="607"/>
      <point x="375" y="607" type="curve" smooth="yes"/>
      <point x="332" y="607"/>
      <point x="318" y="589"/>
      <point x="318" y="563" type="curve" smooth="yes"/>
      <point x="318" y="553"/>
      <point x="322" y="539"/>
    </contour>
  </outline>
</glyph>
<glyph name="uni1211" format="2">
  <advance width="1081"/>
  <unicode hex="1211"/>
  <outline>
    <contour>
      <point x="237" y="410"/>
      <point x="74" y="167"/>
      <point x="74" y="37" type="curve" smooth="yes"/>
      <point x="74" y="10"/>
      <point x="89" y="-5"/>
      <point x="118" y="-5" type="curve" smooth="yes"/>
      <point x="137" y="-5"/>
      <point x="152" y="-2"/>
      <point x="166" y="3" type="curve"/>
      <point x="165" y="13"/>
      <point x="164" y="22"/>
      <point x="164" y="37" type="curve" smooth="yes"/>
      <point x="164" y="189"/>
      <point x="261" y="324"/>
      <point x="305" y="346" type="curve" smooth="yes"/>
      <point x="358" y="371"/>
      <point x="577" y="379"/>
      <point x="696" y="379" type="curve" smooth="yes"/>
      <point x="723" y="379"/>
      <point x="734" y="366"/>
      <point x="734" y="335" type="curve" smooth="yes"/>
      <point x="734" y="245"/>
      <point x="696" y="82"/>
      <point x="696" y="42" type="curve" smooth="yes"/>
      <point x="696" y="20"/>
      <point x="708" y="7"/>
      <point x="733" y="7" type="curve" smooth="yes"/>
      <point x="753" y="7"/>
      <point x="770" y="15"/>
      <point x="781" y="27" type="curve"/>
      <point x="764" y="114"/>
      <point x="810" y="294"/>
      <point x="810" y="369" type="curve" smooth="yes"/>
      <point x="810" y="416"/>
      <point x="785" y="433"/>
      <point x="744" y="433" type="curve" smooth="yes"/>
      <point x="702" y="433"/>
      <point x="456" y="417"/>
      <point x="317" y="400" type="curve"/>
      <point x="309" y="406"/>
      <point x="301" y="410"/>
      <point x="289" y="410" type="curve" smooth="yes"/>
    </contour>
    <contour>
      <point x="965" y="362" type="curve"/>
      <point x="918" y="381" type="line"/>
      <point x="918" y="312"/>
      <point x="929" y="276"/>
      <point x="972" y="276" type="curve" smooth="yes"/>
      <point x="988" y="276"/>
      <point x="1006" y="281"/>
      <point x="1015" y="294" type="curve"/>
      <point x="999" y="323"/>
      <point x="993" y="388"/>
      <point x="1007" y="436" type="curve"/>
      <point x="995" y="443"/>
      <point x="981" y="447"/>
      <point x="966" y="447" type="curve" smooth="yes"/>
      <point x="943" y="447"/>
      <point x="921" y="431"/>
      <point x="919" y="388" type="curve"/>
      <point x="958" y="415" type="line"/>
      <point x="887" y="395"/>
      <point x="850" y="385"/>
      <point x="785" y="371" type="curve"/>
      <point x="779" y="324" type="line"/>
      <point x="832" y="338"/>
      <point x="901" y="354"/>
    </contour>
    <contour>
      <point x="352" y="12" type="curve"/>
      <point x="398" y="16"/>
      <point x="461" y="15"/>
      <point x="491" y="8" type="curve"/>
      <point x="509" y="31"/>
      <point x="505" y="68"/>
      <point x="458" y="68" type="curve" smooth="yes"/>
      <point x="418" y="68"/>
      <point x="378" y="65"/>
      <point x="358" y="60" type="curve"/>
      <point x="347" y="50"/>
      <point x="345" y="23"/>
    </contour>
    <contour>
      <point x="479" y="49" type="line"/>
      <point x="495" y="230"/>
      <point x="595" y="484"/>
      <point x="615" y="536" type="curve"/>
      <point x="634" y="541"/>
      <point x="648" y="547"/>
      <point x="648" y="562" type="curve" smooth="yes"/>
      <point x="648" y="592"/>
      <point x="583" y="627"/>
      <point x="537" y="627" type="curve" smooth="yes"/>
      <point x="506" y="627"/>
      <point x="494" y="605"/>
      <point x="500" y="585" type="curve"/>
      <point x="526" y="577"/>
      <point x="536" y="568"/>
      <point x="536" y="549" type="curve" smooth="yes"/>
      <point x="536" y="473"/>
      <point x="394" y="124"/>
      <point x="388" y="39" type="curve"/>
    </contour>
  </outline>
</glyph>
<glyph name="uni1213" format="2">
  <advance width="849"/>
  <unicode hex="1213"/>
  <outline>
    <contour>
      <point x="453" y="158" type="curve"/>
      <point x="442" y="273"/>
      <point x="510" y="435"/>
      <point x="553" y="536" type="curve"/>
      <point x="572" y="541"/>
      <point x="586" y="547"/>
      <point x="586" y="562" type="curve" smooth="yes"/>
      <point x="586" y="592"/>
      <point x="521" y="627"/>
      <point x="475" y="627" type="curve" smooth="yes"/>
      <point x="444" y="627"/>
      <point x="432" y="605"/>
      <point x="438" y="585" type="curve"/>
      <point x="464" y="577"/>
      <point x="474" y="568"/>
      <point x="474" y="549" type="curve" smooth="yes"/>
      <point x="474" y="473"/>
      <point x="360" y="235"/>
      <point x="360" y="165" type="curve" smooth="yes"/>
      <point x="360" y="145"/>
      <point x="373" y="134"/>
      <point x="401" y="134" type="curve" smooth="yes"/>
      <point x="420" y="134"/>
      <point x="436" y="139"/>
    </contour>
    <contour>
      <point x="182" y="410"/>
      <point x="70" y="252"/>
      <point x="70" y="167" type="curve" smooth="yes"/>
      <point x="70" y="140"/>
      <point x="85" y="125"/>
      <point x="114" y="125" type="curve" smooth="yes"/>
      <point x="133" y="125"/>
      <point x="148" y="128"/>
      <point x="162" y="133" type="curve"/>
      <point x="161" y="143"/>
      <point x="160" y="152"/>
      <point x="160" y="167" type="curve" smooth="yes"/>
      <point x="160" y="220"/>
      <point x="200" y="321"/>
      <point x="243" y="346" type="curve" smooth="yes"/>
      <point x="296" y="371"/>
      <point x="515" y="379"/>
      <point x="634" y="379" type="curve" smooth="yes"/>
      <point x="661" y="379"/>
      <point x="672" y="366"/>
      <point x="672" y="335" type="curve" smooth="yes"/>
      <point x="672" y="245"/>
      <point x="634" y="82"/>
      <point x="634" y="42" type="curve" smooth="yes"/>
      <point x="634" y="20"/>
      <point x="646" y="7"/>
      <point x="671" y="7" type="curve" smooth="yes"/>
      <point x="691" y="7"/>
      <point x="708" y="15"/>
      <point x="719" y="27" type="curve"/>
      <point x="702" y="114"/>
      <point x="748" y="294"/>
      <point x="748" y="369" type="curve" smooth="yes"/>
      <point x="748" y="416"/>
      <point x="723" y="433"/>
      <point x="682" y="433" type="curve" smooth="yes"/>
      <point x="640" y="433"/>
      <point x="394" y="417"/>
      <point x="255" y="400" type="curve"/>
      <point x="247" y="406"/>
      <point x="239" y="410"/>
      <point x="227" y="410" type="curve" smooth="yes"/>
    </contour>
  </outline>
</glyph>
<glyph name="uni1216" format="2">
  <advance width="892"/>
  <unicode hex="1216"/>
  <outline>
    <contour>
      <point x="237" y="410"/>
      <point x="74" y="167"/>
      <point x="74" y="37" type="curve" smooth="yes"/>
      <point x="74" y="10"/>
      <point x="89" y="-5"/>
      <point x="118" y="-5" type="curve" smooth="yes"/>
      <point x="137" y="-5"/>
      <point x="152" y="-2"/>
      <point x="166" y="3" type="curve"/>
      <point x="165" y="13"/>
      <point x="164" y="22"/>
      <point x="164" y="37" type="curve" smooth="yes"/>
      <point x="164" y="189"/>
      <point x="261" y="324"/>
      <point x="305" y="346" type="curve" smooth="yes"/>
      <point x="359" y="372"/>
      <point x="584" y="379"/>
      <point x="706" y="379" type="curve" smooth="yes"/>
      <point x="726" y="379"/>
      <point x="734" y="370"/>
      <point x="734" y="348" type="curve" smooth="yes"/>
      <point x="734" y="305"/>
      <point x="697" y="205"/>
      <point x="697" y="182" type="curve" smooth="yes"/>
      <point x="697" y="160"/>
      <point x="709" y="147"/>
      <point x="733" y="147" type="curve" smooth="yes"/>
      <point x="753" y="147"/>
      <point x="770" y="155"/>
      <point x="781" y="167" type="curve"/>
      <point x="770" y="223"/>
      <point x="810" y="335"/>
      <point x="810" y="382" type="curve" smooth="yes"/>
      <point x="810" y="419"/>
      <point x="790" y="433"/>
      <point x="757" y="433" type="curve" smooth="yes"/>
      <point x="714" y="433"/>
      <point x="460" y="418"/>
      <point x="317" y="400" type="curve"/>
      <point x="309" y="406"/>
      <point x="301" y="410"/>
      <point x="289" y="410" type="curve" smooth="yes"/>
    </contour>
    <contour>
      <point x="516" y="158" type="curve"/>
      <point x="505" y="273"/>
      <point x="573" y="435"/>
      <point x="616" y="536" type="curve"/>
      <point x="635" y="541"/>
      <point x="649" y="547"/>
      <point x="649" y="562" type="curve" smooth="yes"/>
      <point x="649" y="592"/>
      <point x="584" y="627"/>
      <point x="538" y="627" type="curve" smooth="yes"/>
      <point x="507" y="627"/>
      <point x="495" y="605"/>
      <point x="501" y="585" type="curve"/>
      <point x="527" y="577"/>
      <point x="537" y="568"/>
      <point x="537" y="549" type="curve" smooth="yes"/>
      <point x="537" y="473"/>
      <point x="423" y="235"/>
      <point x="423" y="165" type="curve" smooth="yes"/>
      <point x="423" y="145"/>
      <point x="436" y="134"/>
      <point x="464" y="134" type="curve" smooth="yes"/>
      <point x="483" y="134"/>
      <point x="499" y="139"/>
    </contour>
  </outline>
</glyph>
<glyph name="uni1223" format="2">
  <advance width="968"/>
  <unicode hex="1223"/>
  <outline>
    <contour>
      <point x="731" y="23" type="curve"/>
      <point x="669" y="102"/>
      <point x="891" y="467"/>
      <point x="891" y="576" type="curve" smooth="yes"/>
      <point x="891" y="619"/>
      <point x="869" y="635"/>
      <point x="837" y="635" type="curve" smooth="yes"/>
      <point x="809" y="635"/>
      <point x="785" y="615"/>
      <point x="780" y="587" type="curve"/>
      <point x="794" y="580"/>
      <point x="801" y="560"/>
      <point x="801" y="530" type="curve" smooth="yes"/>
      <point x="801" y="474"/>
      <point x="749" y="339"/>
      <point x="681" y="339" type="curve"/>
      <point x="633" y="339"/>
      <point x="538" y="395"/>
      <point x="514" y="549" type="curve"/>
      <point x="473" y="550" type="line"/>
      <point x="473" y="448"/>
      <point x="394" y="249"/>
      <point x="268" y="249" type="curve" smooth="yes"/>
      <point x="213" y="249"/>
      <point x="182" y="279"/>
      <point x="182" y="336" type="curve" smooth="yes"/>
      <point x="182" y="384"/>
      <point x="191" y="437"/>
      <point x="212" y="518" type="curve"/>
      <point x="226" y="526"/>
      <point x="239" y="537"/>
      <point x="239" y="552" type="curve" smooth="yes"/>
      <point x="239" y="581"/>
      <point x="173" y="610"/>
      <point x="125" y="616" type="curve"/>
      <point x="109" y="606"/>
      <point x="103" y="593"/>
      <point x="103" y="581" type="curve" smooth="yes"/>
      <point x="103" y="561"/>
      <point x="118" y="549"/>
      <point x="136" y="543" type="curve"/>
      <point x="136" y="489"/>
      <point x="103" y="367"/>
      <point x="103" y="309" type="curve" smooth="yes"/>
      <point x="103" y="232"/>
      <point x="145" y="198"/>
      <point x="219" y="198" type="curve" smooth="yes"/>
      <point x="281" y="198"/>
      <point x="351" y="221"/>
      <point x="378" y="238" type="curve"/>
      <point x="388" y="232"/>
      <point x="400" y="228"/>
      <point x="414" y="228" type="curve" smooth="yes"/>
      <point x="445" y="228"/>
      <point x="457" y="242"/>
      <point x="470" y="268" type="curve" smooth="yes"/>
      <point x="487" y="302"/>
      <point x="558" y="532"/>
      <point x="558" y="565" type="curve" smooth="yes"/>
      <point x="558" y="598"/>
      <point x="535" y="615"/>
      <point x="508" y="615" type="curve" smooth="yes"/>
      <point x="481" y="615"/>
      <point x="464" y="603"/>
      <point x="456" y="591" type="curve"/>
      <point x="466" y="431"/>
      <point x="579" y="264"/>
      <point x="722" y="264" type="curve"/>
      <point x="712" y="286" type="line"/>
      <point x="670" y="178"/>
      <point x="634" y="81"/>
      <point x="634" y="40" type="curve" smooth="yes"/>
      <point x="634" y="13"/>
      <point x="649" y="-2"/>
      <point x="676" y="-2" type="curve" smooth="yes"/>
      <point x="703" y="-2"/>
      <point x="719" y="8"/>
    </contour>
  </outline>
</glyph>
<glyph name="uni1227" format="2">
  <advance width="993"/>
  <unicode hex="1227"/>
  <outline>
    <contour>
      <point x="731" y="23" type="curve"/>
      <point x="669" y="102"/>
      <point x="891" y="467"/>
      <point x="891" y="576" type="curve" smooth="yes"/>
      <point x="891" y="619"/>
      <point x="869" y="635"/>
      <point x="837" y="635" type="curve" smooth="yes"/>
      <point x="809" y="635"/>
      <point x="785" y="615"/>
      <point x="780" y="587" type="curve"/>
      <point x="794" y="580"/>
      <point x="801" y="560"/>
      <point x="801" y="530" type="curve" smooth="yes"/>
      <point x="801" y="474"/>
      <point x="749" y="339"/>
      <point x="681" y="339" type="curve"/>
      <point x="633" y="339"/>
      <point x="538" y="395"/>
      <point x="514" y="549" type="curve"/>
      <point x="473" y="550" type="line"/>
      <point x="473" y="448"/>
      <point x="394" y="249"/>
      <point x="268" y="249" type="curve" smooth="yes"/>
      <point x="213" y="249"/>
      <point x="182" y="279"/>
      <point x="182" y="336" type="curve" smooth="yes"/>
      <point x="182" y="384"/>
      <point x="191" y="437"/>
      <point x="212" y="518" type="curve"/>
      <point x="226" y="526"/>
      <point x="239" y="537"/>
      <point x="239" y="552" type="curve" smooth="yes"/>
      <point x="239" y="581"/>
      <point x="173" y="610"/>
      <point x="125" y="616" type="curve"/>
      <point x="109" y="606"/>
      <point x="103" y="593"/>
      <point x="103" y="581" type="curve" smooth="yes"/>
      <point x="103" y="561"/>
      <point x="118" y="549"/>
      <point x="136" y="543" type="curve"/>
      <point x="136" y="489"/>
      <point x="103" y="367"/>
      <point x="103" y="309" type="curve" smooth="yes"/>
      <point x="103" y="232"/>
      <point x="145" y="198"/>
      <point x="219" y="198" type="curve" smooth="yes"/>
      <point x="281" y="198"/>
      <point x="351" y="221"/>
      <point x="378" y="238" type="curve"/>
      <point x="388" y="232"/>
      <point x="400" y="228"/>
      <point x="414" y="228" type="curve" smooth="yes"/>
      <point x="445" y="228"/>
      <point x="457" y="242"/>
      <point x="470" y="268" type="curve" smooth="yes"/>
      <point x="487" y="302"/>
      <point x="558" y="532"/>
      <point x="558" y="565" type="curve" smooth="yes"/>
      <point x="558" y="598"/>
      <point x="535" y="615"/>
      <point x="508" y="615" type="curve" smooth="yes"/>
      <point x="481" y="615"/>
      <point x="464" y="603"/>
      <point x="456" y="591" type="curve"/>
      <point x="466" y="431"/>
      <point x="579" y="264"/>
      <point x="722" y="264" type="curve"/>
      <point x="712" y="286" type="line"/>
      <point x="670" y="178"/>
      <point x="634" y="81"/>
      <point x="634" y="40" type="curve" smooth="yes"/>
      <point x="634" y="13"/>
      <point x="649" y="-2"/>
      <point x="676" y="-2" type="curve" smooth="yes"/>
      <point x="703" y="-2"/>
      <point x="719" y="8"/>
    </contour>
    <contour>
      <point x="531" y="-16" type="curve"/>
      <point x="575" y="-12"/>
      <point x="749" y="3"/>
      <point x="821" y="8" type="curve"/>
      <point x="815" y="31" type="line"/>
      <point x="814" y="-45"/>
      <point x="834" y="-69"/>
      <point x="889" y="-69" type="curve" smooth="yes"/>
      <point x="902" y="-69"/>
      <point x="920" y="-67"/>
      <point x="932" y="-63" type="curve"/>
      <point x="923" y="-39"/>
      <point x="919" y="4"/>
      <point x="922" y="31" type="curve"/>
      <point x="889" y="43"/>
      <point x="844" y="54"/>
      <point x="834" y="54" type="curve" smooth="yes"/>
      <point x="807" y="54"/>
      <point x="586" y="36"/>
      <point x="518" y="30" type="curve"/>
      <point x="453" y="38"/>
      <point x="417" y="1"/>
      <point x="417" y="-48" type="curve" smooth="yes"/>
      <point x="417" y="-78"/>
      <point x="438" y="-99"/>
      <point x="476" y="-99" type="curve" smooth="yes"/>
      <point x="487" y="-99"/>
      <point x="500" y="-97"/>
      <point x="514" y="-93" type="curve"/>
      <point x="510" y="-65"/>
      <point x="517" y="-30"/>
    </contour>
  </outline>
</glyph>
<glyph name="uni1234" format="2">
  <advance width="817"/>
  <unicode hex="1234"/>
  <outline>
    <contour>
      <point x="450" y="528" type="line"/>
      <point x="460" y="558"/>
      <point x="472" y="585"/>
      <point x="485" y="606" type="curve"/>
      <point x="505" y="617"/>
      <point x="517" y="623"/>
      <point x="517" y="639" type="curve" smooth="yes"/>
      <point x="517" y="666"/>
      <point x="443" y="697"/>
      <point x="394" y="697" type="curve" smooth="yes"/>
      <point x="366" y="697"/>
      <point x="354" y="673"/>
      <point x="360" y="655" type="curve"/>
      <point x="384" y="647"/>
      <point x="396" y="638"/>
      <point x="396" y="619" type="curve" smooth="yes"/>
      <point x="396" y="603"/>
      <point x="388" y="569"/>
      <point x="376" y="528" type="curve"/>
    </contour>
    <contour>
      <point x="624" y="202"/>
      <point x="669" y="161"/>
      <point x="669" y="119" type="curve" smooth="yes"/>
      <point x="669" y="82"/>
      <point x="650" y="48"/>
      <point x="600" y="48" type="curve" smooth="yes"/>
      <point x="562" y="48"/>
      <point x="526" y="67"/>
      <point x="526" y="118" type="curve" smooth="yes"/>
      <point x="526" y="164"/>
      <point x="533" y="202"/>
      <point x="577" y="202" type="curve" smooth="yes"/>
    </contour>
    <contour>
      <point x="446" y="114" type="curve" smooth="yes"/>
      <point x="446" y="20"/>
      <point x="526" y="-11"/>
      <point x="599" y="-11" type="curve" smooth="yes"/>
      <point x="696" y="-11"/>
      <point x="748" y="48"/>
      <point x="748" y="119" type="curve" smooth="yes"/>
      <point x="748" y="191"/>
      <point x="666" y="254"/>
      <point x="574" y="254" type="curve" smooth="yes"/>
      <point x="550" y="254"/>
      <point x="530" y="253"/>
      <point x="505" y="248" type="curve"/>
      <point x="540" y="212" type="line"/>
      <point x="549" y="265"/>
      <point x="625" y="445"/>
      <point x="625" y="504" type="curve" smooth="yes"/>
      <point x="625" y="537"/>
      <point x="609" y="555"/>
      <point x="575" y="555" type="curve" smooth="yes"/>
      <point x="548" y="555"/>
      <point x="340" y="536"/>
      <point x="194" y="536" type="curve" smooth="yes"/>
      <point x="163" y="536"/>
      <point x="146" y="518"/>
      <point x="146" y="496" type="curve" smooth="yes"/>
      <point x="146" y="476"/>
      <point x="156" y="461"/>
      <point x="169" y="455" type="curve"/>
      <point x="179" y="460"/>
      <point x="191" y="464"/>
      <point x="204" y="468" type="curve"/>
      <point x="184" y="309"/>
      <point x="82" y="77"/>
      <point x="82" y="33" type="curve" smooth="yes"/>
      <point x="82" y="7"/>
      <point x="99" y="-5"/>
      <point x="126" y="-5" type="curve" smooth="yes"/>
      <point x="149" y="-5"/>
      <point x="161" y="-1"/>
      <point x="179" y="3" type="curve"/>
      <point x="176" y="12"/>
      <point x="175" y="21"/>
      <point x="175" y="37" type="curve" smooth="yes"/>
      <point x="175" y="104"/>
      <point x="248" y="318"/>
      <point x="282" y="437" type="curve" smooth="yes"/>
      <point x="294" y="479"/>
      <point x="301" y="487"/>
      <point x="334" y="489" type="curve" smooth="yes"/>
      <point x="386" y="492"/>
      <point x="444" y="497"/>
      <point x="501" y="497" type="curve" smooth="yes"/>
      <point x="527" y="497"/>
      <point x="536" y="483"/>
      <point x="536" y="463" type="curve" smooth="yes"/>
      <point x="536" y="361"/>
      <point x="446" y="208"/>
    </contour>
  </outline>
</glyph>
<glyph name="uni1245" format="2">
  <advance width="829"/>
  <unicode hex="1245"/>
  <outline>
    <contour>
      <point x="765" y="368" type="curve" smooth="yes"/>
      <point x="765" y="422"/>
      <point x="724" y="465"/>
      <point x="530" y="465" type="curve" smooth="yes"/>
      <point x="402" y="465"/>
      <point x="229" y="437"/>
      <point x="142" y="396" type="curve" smooth="yes"/>
      <point x="102" y="377"/>
      <point x="76" y="307"/>
      <point x="76" y="244" type="curve" smooth="yes"/>
      <point x="76" y="175"/>
      <point x="193" y="150"/>
      <point x="370" y="150" type="curve"/>
      <point x="369" y="201" type="line"/>
      <point x="240" y="207"/>
      <point x="165" y="225"/>
      <point x="165" y="276" type="curve" smooth="yes"/>
      <point x="165" y="356"/>
      <point x="242" y="415"/>
      <point x="487" y="415" type="curve" smooth="yes"/>
      <point x="640" y="415"/>
      <point x="673" y="392"/>
      <point x="673" y="354" type="curve" smooth="yes"/>
      <point x="673" y="293"/>
      <point x="586" y="235"/>
      <point x="393" y="203" type="curve"/>
      <point x="403" y="150" type="line"/>
      <point x="547" y="182"/>
      <point x="627" y="220"/>
      <point x="669" y="247" type="curve" smooth="yes"/>
      <point x="732" y="288"/>
      <point x="765" y="336"/>
    </contour>
    <contour>
      <point x="393" y="597" type="curve" smooth="yes"/>
      <point x="421" y="597"/>
      <point x="425" y="588"/>
      <point x="425" y="571" type="curve" smooth="yes"/>
      <point x="425" y="443"/>
      <point x="315" y="61"/>
      <point x="315" y="7" type="curve" smooth="yes"/>
      <point x="315" y="-12"/>
      <point x="325" y="-25"/>
      <point x="349" y="-25" type="curve" smooth="yes"/>
      <point x="370" y="-25"/>
      <point x="387" y="-21"/>
      <point x="404" y="-15" type="curve"/>
      <point x="402" y="-6"/>
      <point x="401" y="3"/>
      <point x="401" y="17" type="curve" smooth="yes"/>
      <point x="401" y="130"/>
      <point x="510" y="532"/>
      <point x="510" y="586" type="curve" smooth="yes"/>
      <point x="510" y="618"/>
      <point x="489" y="637"/>
      <point x="437" y="637" type="curve" smooth="yes"/>
      <point x="370" y="637"/>
      <point x="284" y="623"/>
      <point x="234" y="609" type="curve"/>
      <point x="169" y="623"/>
      <point x="148" y="585"/>
      <point x="148" y="548" type="curve" smooth="yes"/>
      <point x="148" y="518"/>
      <point x="169" y="500"/>
      <point x="224" y="509" type="curve"/>
      <point x="225" y="534"/>
      <point x="230" y="561"/>
      <point x="255" y="600" type="curve"/>
      <point x="226" y="561" type="line"/>
      <point x="271" y="586"/>
      <point x="316" y="597"/>
    </contour>
  </outline>
</glyph>
<glyph name="uni1247" format="2">
  <advance width="811"/>
  <unicode hex="1247"/>
  <outline>
    <contour>
      <point x="747" y="336" type="curve" smooth="yes"/>
      <point x="747" y="390"/>
      <point x="712" y="433"/>
      <point x="546" y="433" type="curve" smooth="yes"/>
      <point x="418" y="433"/>
      <point x="245" y="405"/>
      <point x="158" y="364" type="curve" smooth="yes"/>
      <point x="118" y="345"/>
      <point x="92" y="275"/>
      <point x="92" y="212" type="curve" smooth="yes"/>
      <point x="92" y="148"/>
      <point x="210" y="125"/>
      <point x="387" y="125" type="curve"/>
      <point x="386" y="176" type="line"/>
      <point x="256" y="182"/>
      <point x="181" y="198"/>
      <point x="181" y="244" type="curve" smooth="yes"/>
      <point x="181" y="324"/>
      <point x="258" y="383"/>
      <point x="503" y="383" type="curve" smooth="yes"/>
      <point x="629" y="383"/>
      <point x="656" y="360"/>
      <point x="656" y="322" type="curve" smooth="yes"/>
      <point x="656" y="266"/>
      <point x="577" y="205"/>
      <point x="400" y="184" type="curve"/>
      <point x="410" y="131" type="line"/>
      <point x="543" y="157"/>
      <point x="611" y="190"/>
      <point x="648" y="215" type="curve" smooth="yes"/>
      <point x="712" y="257"/>
      <point x="747" y="304"/>
    </contour>
    <contour>
      <point x="446" y="573" type="curve" smooth="yes"/>
      <point x="446" y="601"/>
      <point x="465" y="620"/>
      <point x="501" y="620" type="curve" smooth="yes"/>
      <point x="530" y="620"/>
      <point x="558" y="603"/>
      <point x="558" y="574" type="curve" smooth="yes"/>
      <point x="558" y="541"/>
      <point x="512" y="502"/>
      <point x="483" y="502" type="curve" smooth="yes"/>
      <point x="466" y="502"/>
      <point x="446" y="534"/>
    </contour>
    <contour>
      <point x="416" y="86" type="curve" smooth="yes"/>
      <point x="429" y="140"/>
      <point x="467" y="366"/>
      <point x="485" y="478" type="curve"/>
      <point x="454" y="444" type="line"/>
      <point x="574" y="468"/>
      <point x="632" y="535"/>
      <point x="632" y="584" type="curve" smooth="yes"/>
      <point x="632" y="635"/>
      <point x="563" y="678"/>
      <point x="497" y="678" type="curve" smooth="yes"/>
      <point x="429" y="678"/>
      <point x="371" y="637"/>
      <point x="371" y="575" type="curve" smooth="yes"/>
      <point x="371" y="536"/>
      <point x="385" y="496"/>
      <point x="406" y="458" type="curve"/>
      <point x="401" y="358"/>
      <point x="353" y="125"/>
      <point x="337" y="92" type="curve" smooth="yes"/>
      <point x="319" y="54"/>
      <point x="295" y="28"/>
      <point x="110" y="41" type="curve"/>
      <point x="78" y="25"/>
      <point x="52" y="-25"/>
      <point x="52" y="-63" type="curve" smooth="yes"/>
      <point x="52" y="-88"/>
      <point x="82" y="-103"/>
      <point x="137" y="-94" type="curve"/>
      <point x="138" y="-61"/>
      <point x="149" y="-19"/>
      <point x="178" y="19" type="curve"/>
      <point x="147" y="-7" type="line"/>
      <point x="342" y="1"/>
      <point x="397" y="7"/>
    </contour>
  </outline>
</glyph>
<glyph name="uni1248" format="2">
  <advance width="914"/>
  <unicode hex="1248"/>
  <outline>
    <contour>
      <point x="743" y="428" type="curve" smooth="yes"/>
      <point x="743" y="476"/>
      <point x="704" y="515"/>
      <point x="519" y="515" type="curve" smooth="yes"/>
      <point x="391" y="515"/>
      <point x="218" y="487"/>
      <point x="131" y="446" type="curve" smooth="yes"/>
      <point x="92" y="428"/>
      <point x="65" y="375"/>
      <point x="65" y="324" type="curve" smooth="yes"/>
      <point x="65" y="262"/>
      <point x="183" y="240"/>
      <point x="361" y="240" type="curve"/>
      <point x="360" y="291" type="line"/>
      <point x="228" y="297"/>
      <point x="154" y="312"/>
      <point x="154" y="356" type="curve" smooth="yes"/>
      <point x="154" y="419"/>
      <point x="231" y="465"/>
      <point x="476" y="465" type="curve" smooth="yes"/>
      <point x="620" y="465"/>
      <point x="651" y="446"/>
      <point x="651" y="414" type="curve" smooth="yes"/>
      <point x="651" y="365"/>
      <point x="568" y="322"/>
      <point x="384" y="293" type="curve"/>
      <point x="394" y="240" type="line"/>
      <point x="539" y="272"/>
      <point x="615" y="296"/>
      <point x="658" y="324" type="curve" smooth="yes"/>
      <point x="715" y="361"/>
      <point x="743" y="400"/>
    </contour>
    <contour>
      <point x="487" y="586" type="curve"/>
      <point x="497" y="593"/>
      <point x="504" y="601"/>
      <point x="504" y="615" type="curve" smooth="yes"/>
      <point x="504" y="641"/>
      <point x="455" y="657"/>
      <point x="405" y="657" type="curve" smooth="yes"/>
      <point x="367" y="657"/>
      <point x="357" y="634"/>
      <point x="363" y="611" type="curve"/>
      <point x="387" y="607"/>
      <point x="402" y="598"/>
      <point x="402" y="579" type="curve"/>
      <point x="400" y="443"/>
      <point x="292" y="61"/>
      <point x="292" y="7" type="curve" smooth="yes"/>
      <point x="292" y="-12"/>
      <point x="302" y="-25"/>
      <point x="325" y="-25" type="curve" smooth="yes"/>
      <point x="347" y="-25"/>
      <point x="365" y="-23"/>
      <point x="382" y="-16" type="curve"/>
      <point x="380" y="-6"/>
      <point x="378" y="2"/>
      <point x="378" y="17" type="curve" smooth="yes"/>
      <point x="378" y="130"/>
      <point x="474" y="480"/>
    </contour>
    <contour>
      <point x="848" y="93" type="curve" smooth="yes"/>
      <point x="848" y="141"/>
      <point x="785" y="210"/>
      <point x="698" y="210" type="curve" smooth="yes"/>
      <point x="581" y="210"/>
      <point x="494" y="191"/>
      <point x="340" y="156" type="curve"/>
      <point x="355" y="108" type="line"/>
      <point x="421" y="127"/>
      <point x="487" y="141"/>
      <point x="563" y="148" type="curve"/>
      <point x="536" y="155" type="line"/>
      <point x="542" y="14"/>
      <point x="640" y="-41"/>
      <point x="697" y="-41" type="curve" smooth="yes"/>
      <point x="779" y="-41"/>
      <point x="848" y="27"/>
    </contour>
    <contour>
      <point x="677" y="153" type="curve" smooth="yes"/>
      <point x="741" y="153"/>
      <point x="773" y="111"/>
      <point x="773" y="83" type="curve" smooth="yes"/>
      <point x="773" y="51"/>
      <point x="751" y="19"/>
      <point x="709" y="19" type="curve" smooth="yes"/>
      <point x="648" y="19"/>
      <point x="600" y="72"/>
      <point x="600" y="119" type="curve" smooth="yes"/>
      <point x="600" y="143"/>
      <point x="633" y="153"/>
    </contour>
  </outline>
</glyph>
<glyph name="uni1262" format="2">
  <advance width="865"/>
  <unicode hex="1262"/>
  <outline>
    <contour>
      <point x="533" y="78" type="curve" smooth="yes"/>
      <point x="533" y="184"/>
      <point x="631" y="420"/>
      <point x="631" y="512" type="curve" smooth="yes"/>
      <point x="631" y="562"/>
      <point x="589" y="579"/>
      <point x="500" y="588" type="curve" smooth="yes"/>
      <point x="441" y="594"/>
      <point x="363" y="596"/>
      <point x="263" y="596" type="curve" smooth="yes"/>
      <point x="229" y="596"/>
      <point x="215" y="579"/>
      <point x="215" y="556" type="curve" smooth="yes"/>
      <point x="215" y="536"/>
      <point x="225" y="521"/>
      <point x="238" y="515" type="curve"/>
      <point x="245" y="516"/>
      <point x="251" y="517"/>
      <point x="258" y="518" type="curve"/>
      <point x="175" y="369"/>
      <point x="84" y="171"/>
      <point x="84" y="45" type="curve" smooth="yes"/>
      <point x="84" y="7"/>
      <point x="101" y="-5"/>
      <point x="128" y="-5" type="curve" smooth="yes"/>
      <point x="149" y="-5"/>
      <point x="161" y="-2"/>
      <point x="175" y="4" type="curve"/>
      <point x="173" y="14"/>
      <point x="172" y="21"/>
      <point x="172" y="37" type="curve" smooth="yes"/>
      <point x="172" y="172"/>
      <point x="251" y="358"/>
      <point x="325" y="489" type="curve" smooth="yes"/>
      <point x="344" y="523"/>
      <point x="360" y="533"/>
      <point x="396" y="533" type="curve" smooth="yes"/>
      <point x="508" y="533"/>
      <point x="544" y="518"/>
      <point x="544" y="485" type="curve" smooth="yes"/>
      <point x="544" y="384"/>
      <point x="448" y="187"/>
      <point x="448" y="51" type="curve" smooth="yes"/>
      <point x="448" y="14"/>
      <point x="473" y="-8"/>
      <point x="515" y="-8" type="curve" smooth="yes"/>
      <point x="545" y="-8"/>
      <point x="622" y="8"/>
      <point x="713" y="28" type="curve"/>
      <point x="707" y="51" type="line"/>
      <point x="706" y="-25"/>
      <point x="726" y="-49"/>
      <point x="781" y="-49" type="curve" smooth="yes"/>
      <point x="794" y="-49"/>
      <point x="812" y="-47"/>
      <point x="824" y="-43" type="curve"/>
      <point x="815" y="-19"/>
      <point x="811" y="24"/>
      <point x="814" y="51" type="curve"/>
      <point x="781" y="63"/>
      <point x="736" y="74"/>
      <point x="726" y="74" type="curve" smooth="yes"/>
      <point x="696" y="74"/>
      <point x="605" y="47"/>
      <point x="572" y="47" type="curve" smooth="yes"/>
      <point x="546" y="47"/>
      <point x="533" y="54"/>
    </contour>
  </outline>
</glyph>
<glyph name="uni1266" format="2">
  <advance width="716"/>
  <unicode hex="1266"/>
  <outline>
    <contour>
      <point x="263" y="596" type="curve" smooth="yes"/>
      <point x="229" y="596"/>
      <point x="215" y="579"/>
      <point x="215" y="556" type="curve" smooth="yes"/>
      <point x="215" y="536"/>
      <point x="225" y="521"/>
      <point x="238" y="515" type="curve"/>
      <point x="245" y="516"/>
      <point x="251" y="517"/>
      <point x="258" y="518" type="curve"/>
      <point x="175" y="369"/>
      <point x="84" y="171"/>
      <point x="84" y="45" type="curve" smooth="yes"/>
      <point x="84" y="7"/>
      <point x="101" y="-5"/>
      <point x="128" y="-5" type="curve" smooth="yes"/>
      <point x="149" y="-5"/>
      <point x="161" y="-2"/>
      <point x="175" y="4" type="curve"/>
      <point x="173" y="14"/>
      <point x="172" y="21"/>
      <point x="172" y="37" type="curve" smooth="yes"/>
      <point x="172" y="172"/>
      <point x="251" y="358"/>
      <point x="325" y="489" type="curve" smooth="yes"/>
      <point x="344" y="523"/>
      <point x="360" y="533"/>
      <point x="396" y="533" type="curve" smooth="yes"/>
      <point x="508" y="533"/>
      <point x="544" y="518"/>
      <point x="544" y="485" type="curve" smooth="yes"/>
      <point x="544" y="433"/>
      <point x="490" y="332"/>
      <point x="490" y="282" type="curve" smooth="yes"/>
      <point x="490" y="247"/>
      <point x="508" y="226"/>
      <point x="537" y="226" type="curve" smooth="yes"/>
      <point x="553" y="226"/>
      <point x="575" y="231"/>
      <point x="587" y="246" type="curve"/>
      <point x="569" y="311"/>
      <point x="631" y="461"/>
      <point x="631" y="512" type="curve" smooth="yes"/>
      <point x="631" y="562"/>
      <point x="589" y="579"/>
      <point x="500" y="588" type="curve" smooth="yes"/>
      <point x="441" y="594"/>
      <point x="363" y="596"/>
    </contour>
  </outline>
</glyph>
<glyph name="uni1267" format="2">
  <advance width="719"/>
  <unicode hex="1267"/>
  <outline>
    <contour>
      <point x="486" y="595" type="curve" smooth="yes"/>
      <point x="429" y="595"/>
      <point x="295" y="576"/>
      <point x="157" y="576" type="curve" smooth="yes"/>
      <point x="126" y="576"/>
      <point x="109" y="558"/>
      <point x="109" y="536" type="curve" smooth="yes"/>
      <point x="109" y="516"/>
      <point x="119" y="501"/>
      <point x="132" y="495" type="curve"/>
      <point x="137" y="497"/>
      <point x="143" y="500"/>
      <point x="149" y="502" type="curve"/>
      <point x="130" y="441"/>
      <point x="90" y="311"/>
      <point x="90" y="263" type="curve" smooth="yes"/>
      <point x="90" y="237"/>
      <point x="107" y="225"/>
      <point x="134" y="225" type="curve" smooth="yes"/>
      <point x="156" y="225"/>
      <point x="168" y="228"/>
      <point x="186" y="232" type="curve"/>
      <point x="184" y="242"/>
      <point x="182" y="251"/>
      <point x="182" y="275" type="curve" smooth="yes"/>
      <point x="182" y="320"/>
      <point x="205" y="419"/>
      <point x="223" y="474" type="curve" smooth="yes"/>
      <point x="237" y="515"/>
      <point x="247" y="523"/>
      <point x="283" y="527" type="curve" smooth="yes"/>
      <point x="330" y="533"/>
      <point x="389" y="537"/>
      <point x="446" y="537" type="curve" smooth="yes"/>
      <point x="472" y="537"/>
      <point x="481" y="523"/>
      <point x="481" y="503" type="curve" smooth="yes"/>
      <point x="481" y="385"/>
      <point x="387" y="170"/>
      <point x="387" y="58" type="curve" smooth="yes"/>
      <point x="387" y="23"/>
      <point x="405" y="2"/>
      <point x="434" y="2" type="curve" smooth="yes"/>
      <point x="449" y="2"/>
      <point x="468" y="7"/>
      <point x="480" y="22" type="curve"/>
      <point x="449" y="138"/>
      <point x="569" y="464"/>
      <point x="569" y="524" type="curve" smooth="yes"/>
      <point x="569" y="569"/>
      <point x="549" y="595"/>
    </contour>
    <contour>
      <point x="281" y="-16" type="curve"/>
      <point x="325" y="-12"/>
      <point x="499" y="3"/>
      <point x="571" y="8" type="curve"/>
      <point x="565" y="31" type="line"/>
      <point x="564" y="-45"/>
      <point x="584" y="-69"/>
      <point x="639" y="-69" type="curve" smooth="yes"/>
      <point x="652" y="-69"/>
      <point x="670" y="-67"/>
      <point x="682" y="-63" type="curve"/>
      <point x="673" y="-39"/>
      <point x="669" y="4"/>
      <point x="672" y="31" type="curve"/>
      <point x="639" y="43"/>
      <point x="594" y="54"/>
      <point x="584" y="54" type="curve" smooth="yes"/>
      <point x="557" y="54"/>
      <point x="336" y="36"/>
      <point x="268" y="30" type="curve"/>
      <point x="203" y="38"/>
      <point x="167" y="1"/>
      <point x="167" y="-48" type="curve" smooth="yes"/>
      <point x="167" y="-78"/>
      <point x="188" y="-99"/>
      <point x="226" y="-99" type="curve" smooth="yes"/>
      <point x="237" y="-99"/>
      <point x="250" y="-97"/>
      <point x="264" y="-93" type="curve"/>
      <point x="260" y="-65"/>
      <point x="267" y="-30"/>
    </contour>
  </outline>
</glyph>
<glyph name="uni1271" format="2">
  <advance width="786"/>
  <unicode hex="1271"/>
  <outline>
    <contour>
      <point x="346" y="164" type="curve"/>
      <point x="340" y="113" type="line"/>
      <point x="430" y="135"/>
      <point x="546" y="166"/>
      <point x="655" y="175" type="curve"/>
      <point x="584" y="188" type="line"/>
      <point x="583" y="118"/>
      <point x="609" y="90"/>
      <point x="716" y="108" type="curve"/>
      <point x="710" y="137"/>
      <point x="708" y="165"/>
      <point x="705" y="186" type="curve" smooth="yes"/>
      <point x="703" y="200"/>
      <point x="698" y="204"/>
      <point x="686" y="207" type="curve" smooth="yes"/>
      <point x="666" y="212"/>
      <point x="646" y="216"/>
      <point x="629" y="219" type="curve" smooth="yes"/>
      <point x="610" y="223"/>
      <point x="601" y="223"/>
      <point x="580" y="217" type="curve" smooth="yes"/>
      <point x="512" y="197"/>
      <point x="454" y="187"/>
    </contour>
    <contour>
      <point x="242" y="362"/>
      <point x="491" y="394"/>
      <point x="608" y="406" type="curve"/>
      <point x="550" y="416" type="line"/>
      <point x="548" y="402"/>
      <point x="546" y="382"/>
      <point x="546" y="356" type="curve" smooth="yes"/>
      <point x="546" y="327"/>
      <point x="560" y="311"/>
      <point x="597" y="311" type="curve" smooth="yes"/>
      <point x="619" y="311"/>
      <point x="640" y="315"/>
      <point x="658" y="328" type="curve"/>
      <point x="647" y="344"/>
      <point x="641" y="367"/>
      <point x="640" y="393" type="curve" smooth="yes"/>
      <point x="639" y="417"/>
      <point x="641" y="446"/>
      <point x="649" y="468" type="curve"/>
      <point x="628" y="477"/>
      <point x="612" y="482"/>
      <point x="591" y="482" type="curve" smooth="yes"/>
      <point x="569" y="482"/>
      <point x="559" y="471"/>
      <point x="554" y="452" type="curve"/>
      <point x="481" y="440"/>
      <point x="235" y="398"/>
      <point x="152" y="390" type="curve"/>
      <point x="83" y="394"/>
      <point x="61" y="334"/>
      <point x="61" y="288" type="curve" smooth="yes"/>
      <point x="61" y="262"/>
      <point x="78" y="247"/>
      <point x="111" y="247" type="curve" smooth="yes"/>
      <point x="134" y="247"/>
      <point x="152" y="251"/>
      <point x="180" y="263" type="curve"/>
      <point x="166" y="295"/>
      <point x="170" y="333"/>
      <point x="197" y="375" type="curve"/>
      <point x="154" y="339" type="line"/>
    </contour>
    <contour>
      <point x="449" y="586" type="curve"/>
      <point x="468" y="592"/>
      <point x="479" y="602"/>
      <point x="479" y="614" type="curve" smooth="yes"/>
      <point x="479" y="636"/>
      <point x="417" y="657"/>
      <point x="359" y="657" type="curve" smooth="yes"/>
      <point x="331" y="657"/>
      <point x="319" y="633"/>
      <point x="325" y="615" type="curve"/>
      <point x="351" y="606"/>
      <point x="364" y="598"/>
      <point x="364" y="579" type="curve"/>
      <point x="364" y="423"/>
      <point x="249" y="61"/>
      <point x="249" y="7" type="curve" smooth="yes"/>
      <point x="249" y="-12"/>
      <point x="259" y="-25"/>
      <point x="278" y="-25" type="curve" smooth="yes"/>
      <point x="304" y="-25"/>
      <point x="319" y="-23"/>
      <point x="339" y="-18" type="curve"/>
      <point x="337" y="-8"/>
      <point x="335" y="2"/>
      <point x="335" y="17" type="curve" smooth="yes"/>
      <point x="335" y="130"/>
      <point x="449" y="476"/>
    </contour>
  </outline>
</glyph>
<glyph name="uni1276" format="2">
  <advance width="723"/>
  <unicode hex="1276"/>
  <outline>
    <contour>
      <point x="339" y="467" type="line"/>
      <point x="339" y="334"/>
      <point x="249" y="23"/>
      <point x="249" y="-23" type="curve" smooth="yes"/>
      <point x="249" y="-42"/>
      <point x="259" y="-55"/>
      <point x="278" y="-55" type="curve" smooth="yes"/>
      <point x="304" y="-55"/>
      <point x="319" y="-53"/>
      <point x="339" y="-48" type="curve"/>
      <point x="337" y="-38"/>
      <point x="335" y="-28"/>
      <point x="335" y="-13" type="curve" smooth="yes"/>
      <point x="335" y="84"/>
      <point x="424" y="380"/>
      <point x="424" y="474" type="curve"/>
      <point x="387" y="444" type="line"/>
    </contour>
    <contour>
      <point x="394" y="408" type="line"/>
      <point x="472" y="478"/>
      <point x="527" y="538"/>
      <point x="527" y="584" type="curve" smooth="yes"/>
      <point x="527" y="635"/>
      <point x="459" y="678"/>
      <point x="393" y="678" type="curve" smooth="yes"/>
      <point x="323" y="678"/>
      <point x="262" y="632"/>
      <point x="262" y="563" type="curve" smooth="yes"/>
      <point x="262" y="514"/>
      <point x="310" y="464"/>
      <point x="343" y="413" type="curve"/>
      <point x="395" y="458" type="line"/>
      <point x="353" y="496"/>
      <point x="330" y="534"/>
      <point x="330" y="563" type="curve" smooth="yes"/>
      <point x="330" y="597"/>
      <point x="353" y="620"/>
      <point x="397" y="620" type="curve" smooth="yes"/>
      <point x="425" y="620"/>
      <point x="453" y="603"/>
      <point x="453" y="574" type="curve" smooth="yes"/>
      <point x="453" y="546"/>
      <point x="429" y="501"/>
      <point x="372" y="450" type="curve"/>
    </contour>
    <contour>
      <point x="242" y="322"/>
      <point x="491" y="354"/>
      <point x="608" y="366" type="curve"/>
      <point x="550" y="376" type="line"/>
      <point x="548" y="362"/>
      <point x="546" y="342"/>
      <point x="546" y="316" type="curve" smooth="yes"/>
      <point x="546" y="287"/>
      <point x="560" y="271"/>
      <point x="597" y="271" type="curve" smooth="yes"/>
      <point x="619" y="271"/>
      <point x="640" y="275"/>
      <point x="658" y="288" type="curve"/>
      <point x="647" y="304"/>
      <point x="641" y="327"/>
      <point x="640" y="353" type="curve" smooth="yes"/>
      <point x="639" y="377"/>
      <point x="641" y="406"/>
      <point x="649" y="428" type="curve"/>
      <point x="628" y="437"/>
      <point x="612" y="442"/>
      <point x="591" y="442" type="curve" smooth="yes"/>
      <point x="569" y="442"/>
      <point x="559" y="431"/>
      <point x="554" y="412" type="curve"/>
      <point x="481" y="400"/>
      <point x="235" y="358"/>
      <point x="152" y="350" type="curve"/>
      <point x="83" y="354"/>
      <point x="61" y="294"/>
      <point x="61" y="248" type="curve" smooth="yes"/>
      <point x="61" y="222"/>
      <point x="78" y="207"/>
      <point x="111" y="207" type="curve" smooth="yes"/>
      <point x="134" y="207"/>
      <point x="152" y="211"/>
      <point x="180" y="223" type="curve"/>
      <point x="166" y="255"/>
      <point x="170" y="293"/>
      <point x="197" y="335" type="curve"/>
      <point x="154" y="299" type="line"/>
    </contour>
  </outline>
</glyph>
<glyph name="uni1294" format="2">
  <advance width="556"/>
  <unicode hex="1294"/>
  <outline>
    <contour>
      <point x="156" y="83" type="curve" smooth="yes"/>
      <point x="156" y="14"/>
      <point x="237" y="-11"/>
      <point x="305" y="-11" type="curve" smooth="yes"/>
      <point x="419" y="-11"/>
      <point x="492" y="45"/>
      <point x="492" y="109" type="curve" smooth="yes"/>
      <point x="492" y="158"/>
      <point x="436" y="206"/>
      <point x="286" y="252" type="curve"/>
      <point x="299" y="218" type="line"/>
      <point x="336" y="276"/>
      <point x="357" y="306"/>
      <point x="357" y="324" type="curve" smooth="yes"/>
      <point x="357" y="404"/>
      <point x="170" y="354"/>
      <point x="170" y="402" type="curve" smooth="yes"/>
      <point x="170" y="445"/>
      <point x="250" y="579"/>
      <point x="250" y="613" type="curve" smooth="yes"/>
      <point x="250" y="631"/>
      <point x="240" y="639"/>
      <point x="214" y="639" type="curve" smooth="yes"/>
      <point x="195" y="639"/>
      <point x="177" y="635"/>
      <point x="168" y="626" type="curve"/>
      <point x="168" y="566"/>
      <point x="77" y="412"/>
      <point x="77" y="370" type="curve" smooth="yes"/>
      <point x="77" y="350"/>
      <point x="91" y="333"/>
      <point x="122" y="333" type="curve" smooth="yes"/>
      <point x="252" y="333"/>
      <point x="271" y="328"/>
      <point x="271" y="309" type="curve" smooth="yes"/>
      <point x="271" y="287"/>
      <point x="156" y="149"/>
    </contour>
    <contour>
      <point x="242" y="98" type="curve" smooth="yes"/>
      <point x="242" y="135"/>
      <point x="276" y="190"/>
      <point x="298" y="190" type="curve" smooth="yes"/>
      <point x="349" y="190"/>
      <point x="407" y="149"/>
      <point x="407" y="110" type="curve" smooth="yes"/>
      <point x="407" y="78"/>
      <point x="374" y="49"/>
      <point x="310" y="49" type="curve" smooth="yes"/>
      <point x="266" y="49"/>
      <point x="242" y="66"/>
    </contour>
  </outline>
</glyph>
<glyph name="uni1295" format="2">
  <advance width="563"/>
  <unicode hex="1295"/>
  <outline>
    <contour>
      <point x="292" y="558" type="curve" smooth="yes"/>
      <point x="292" y="527"/>
      <point x="217" y="395"/>
      <point x="217" y="352" type="curve" smooth="yes"/>
      <point x="217" y="332"/>
      <point x="231" y="315"/>
      <point x="262" y="315" type="curve" smooth="yes"/>
      <point x="392" y="315"/>
      <point x="411" y="310"/>
      <point x="411" y="291" type="curve" smooth="yes"/>
      <point x="411" y="247"/>
      <point x="334" y="88"/>
      <point x="212" y="58" type="curve"/>
      <point x="204" y="45"/>
      <point x="203" y="34"/>
      <point x="203" y="21" type="curve" smooth="yes"/>
      <point x="203" y="-6"/>
      <point x="225" y="-24"/>
      <point x="253" y="-13" type="curve" smooth="yes"/>
      <point x="386" y="39"/>
      <point x="494" y="252"/>
      <point x="494" y="305" type="curve" smooth="yes"/>
      <point x="494" y="386"/>
      <point x="308" y="335"/>
      <point x="308" y="384" type="curve" smooth="yes"/>
      <point x="308" y="430"/>
      <point x="388" y="566"/>
      <point x="388" y="603" type="curve" smooth="yes"/>
      <point x="388" y="621"/>
      <point x="379" y="637"/>
      <point x="345" y="637" type="curve" smooth="yes"/>
      <point x="260" y="637"/>
      <point x="163" y="629"/>
      <point x="117" y="623" type="curve" smooth="yes"/>
      <point x="88" y="619"/>
      <point x="59" y="569"/>
      <point x="59" y="527" type="curve" smooth="yes"/>
      <point x="59" y="503"/>
      <point x="94" y="487"/>
      <point x="160" y="497" type="curve"/>
      <point x="161" y="525"/>
      <point x="173" y="555"/>
      <point x="185" y="573" type="curve"/>
      <point x="215" y="579"/>
      <point x="239" y="581"/>
      <point x="258" y="581" type="curve" smooth="yes"/>
      <point x="287" y="581"/>
      <point x="292" y="573"/>
    </contour>
  </outline>
</glyph>
<glyph name="uni12A1" format="2">
  <advance width="869"/>
  <unicode hex="12A1"/>
  <outline>
    <contour>
      <point x="168" y="624" type="curve"/>
      <point x="173" y="615"/>
      <point x="175" y="606"/>
      <point x="175" y="594" type="curve" smooth="yes"/>
      <point x="175" y="565"/>
      <point x="159" y="514"/>
      <point x="159" y="486" type="curve" smooth="yes"/>
      <point x="159" y="471"/>
      <point x="171" y="460"/>
      <point x="197" y="460" type="curve" smooth="yes"/>
      <point x="259" y="460"/>
      <point x="304" y="467"/>
      <point x="380" y="467" type="curve" smooth="yes"/>
      <point x="393" y="467"/>
      <point x="400" y="465"/>
      <point x="400" y="456" type="curve" smooth="yes"/>
      <point x="400" y="447"/>
      <point x="386" y="431"/>
      <point x="364" y="407" type="curve" smooth="yes"/>
      <point x="277" y="312"/>
      <point x="64" y="111"/>
      <point x="64" y="31" type="curve" smooth="yes"/>
      <point x="64" y="4"/>
      <point x="78" y="-5"/>
      <point x="101" y="-5" type="curve" smooth="yes"/>
      <point x="130" y="-5"/>
      <point x="156" y="2"/>
      <point x="168" y="19" type="curve"/>
      <point x="141" y="132"/>
      <point x="368" y="311"/>
      <point x="464" y="426" type="curve" smooth="yes"/>
      <point x="485" y="452"/>
      <point x="499" y="476"/>
      <point x="499" y="495" type="curve" smooth="yes"/>
      <point x="499" y="514"/>
      <point x="483" y="525"/>
      <point x="458" y="525" type="curve" smooth="yes"/>
      <point x="396" y="525"/>
      <point x="334" y="521"/>
      <point x="270" y="518" type="curve" smooth="yes"/>
      <point x="251" y="517"/>
      <point x="241" y="522"/>
      <point x="241" y="530" type="curve" smooth="yes"/>
      <point x="241" y="544"/>
      <point x="257" y="590"/>
      <point x="257" y="610" type="curve" smooth="yes"/>
      <point x="257" y="628"/>
      <point x="248" y="639"/>
      <point x="221" y="639" type="curve" smooth="yes"/>
      <point x="203" y="639"/>
      <point x="185" y="633"/>
    </contour>
    <contour>
      <point x="459" y="371" type="curve" smooth="yes"/>
      <point x="343" y="371"/>
      <point x="191" y="256"/>
      <point x="138" y="20" type="curve"/>
      <point x="168" y="19" type="line"/>
      <point x="154" y="148"/>
      <point x="323" y="326"/>
      <point x="427" y="326" type="curve" smooth="yes"/>
      <point x="463" y="326"/>
      <point x="491" y="306"/>
      <point x="491" y="266" type="curve" smooth="yes"/>
      <point x="491" y="145"/>
      <point x="452" y="90"/>
      <point x="452" y="23" type="curve" smooth="yes"/>
      <point x="452" y="9"/>
      <point x="456" y="-3"/>
      <point x="483" y="-3" type="curve" smooth="yes"/>
      <point x="509" y="-3"/>
      <point x="533" y="1"/>
      <point x="546" y="17" type="curve"/>
      <point x="526" y="100"/>
      <point x="569" y="184"/>
      <point x="569" y="281" type="curve" smooth="yes"/>
      <point x="569" y="358"/>
      <point x="518" y="371"/>
    </contour>
    <contour>
      <point x="542" y="321" type="curve"/>
      <point x="536" y="263" type="line"/>
      <point x="597" y="278"/>
      <point x="677" y="299"/>
      <point x="751" y="305" type="curve"/>
      <point x="680" y="325" type="line"/>
      <point x="679" y="255"/>
      <point x="705" y="227"/>
      <point x="812" y="245" type="curve"/>
      <point x="806" y="274"/>
      <point x="804" y="302"/>
      <point x="801" y="323" type="curve" smooth="yes"/>
      <point x="799" y="337"/>
      <point x="794" y="341"/>
      <point x="782" y="344" type="curve" smooth="yes"/>
      <point x="762" y="349"/>
      <point x="742" y="353"/>
      <point x="725" y="356" type="curve" smooth="yes"/>
      <point x="706" y="360"/>
      <point x="697" y="360"/>
      <point x="676" y="354" type="curve" smooth="yes"/>
      <point x="638" y="343"/>
      <point x="603" y="334"/>
    </contour>
  </outline>
</glyph>
<glyph name="uni12AD" format="2">
  <advance width="730"/>
  <unicode hex="12AD"/>
  <outline>
    <contour>
      <point x="121" y="0" type="curve"/>
      <point x="172" y="3"/>
      <point x="219" y="3"/>
      <point x="246" y="-4" type="curve"/>
      <point x="260" y="22"/>
      <point x="257" y="56"/>
      <point x="208" y="56" type="curve" smooth="yes"/>
      <point x="186" y="56"/>
      <point x="149" y="53"/>
      <point x="132" y="48" type="curve" smooth="yes"/>
      <point x="113" y="43"/>
      <point x="104" y="20"/>
    </contour>
    <contour>
      <point x="209" y="199" type="curve" smooth="yes"/>
      <point x="209" y="167"/>
      <point x="142" y="84"/>
      <point x="142" y="39" type="curve" smooth="yes"/>
      <point x="142" y="12"/>
      <point x="155" y="3"/>
      <point x="176" y="3" type="curve" smooth="yes"/>
      <point x="198" y="3"/>
      <point x="213" y="9"/>
      <point x="223" y="27" type="curve"/>
      <point x="227" y="96"/>
      <point x="295" y="206"/>
      <point x="295" y="231" type="curve" smooth="yes"/>
      <point x="295" y="246"/>
      <point x="289" y="255"/>
      <point x="269" y="255" type="curve" smooth="yes"/>
      <point x="253" y="255"/>
      <point x="248" y="260"/>
      <point x="248" y="268" type="curve" smooth="yes"/>
      <point x="248" y="303"/>
      <point x="328" y="405"/>
      <point x="328" y="450" type="curve" smooth="yes"/>
      <point x="328" y="474"/>
      <point x="312" y="480"/>
      <point x="282" y="480" type="curve" smooth="yes"/>
      <point x="221" y="480"/>
      <point x="183" y="470"/>
      <point x="183" y="497" type="curve" smooth="yes"/>
      <point x="183" y="540"/>
      <point x="220" y="594"/>
      <point x="220" y="631" type="curve" smooth="yes"/>
      <point x="220" y="659"/>
      <point x="191" y="670"/>
      <point x="166" y="670" type="curve" smooth="yes"/>
      <point x="131" y="670"/>
      <point x="109" y="650"/>
      <point x="104" y="622" type="curve"/>
      <point x="116" y="616"/>
      <point x="122" y="609"/>
      <point x="122" y="593" type="curve" smooth="yes"/>
      <point x="122" y="566"/>
      <point x="94" y="498"/>
      <point x="94" y="463" type="curve" smooth="yes"/>
      <point x="94" y="443"/>
      <point x="108" y="429"/>
      <point x="138" y="429" type="curve" smooth="yes"/>
      <point x="156" y="429"/>
      <point x="185" y="434"/>
      <point x="205" y="435" type="curve" smooth="yes"/>
      <point x="226" y="435"/>
      <point x="239" y="431"/>
      <point x="239" y="417" type="curve" smooth="yes"/>
      <point x="239" y="395"/>
      <point x="156" y="279"/>
      <point x="156" y="243" type="curve" smooth="yes"/>
      <point x="156" y="225"/>
      <point x="165" y="214"/>
      <point x="184" y="214" type="curve" smooth="yes"/>
      <point x="202" y="214"/>
      <point x="209" y="211"/>
    </contour>
    <contour>
      <point x="501" y="518" type="curve" smooth="yes"/>
      <point x="451" y="518"/>
      <point x="371" y="499"/>
      <point x="276" y="467" type="curve"/>
      <point x="277" y="406" type="line"/>
      <point x="367" y="450"/>
      <point x="423" y="464"/>
      <point x="458" y="464" type="curve" smooth="yes"/>
      <point x="507" y="464"/>
      <point x="548" y="440"/>
      <point x="548" y="374" type="curve" smooth="yes"/>
      <point x="548" y="284"/>
      <point x="472" y="86"/>
      <point x="472" y="21" type="curve" smooth="yes"/>
      <point x="472" y="7"/>
      <point x="476" y="-5"/>
      <point x="503" y="-5" type="curve" smooth="yes"/>
      <point x="526" y="-5"/>
      <point x="547" y="0"/>
      <point x="559" y="15" type="curve"/>
      <point x="559" y="124"/>
      <point x="630" y="347"/>
      <point x="630" y="401" type="curve" smooth="yes"/>
      <point x="630" y="478"/>
      <point x="577" y="518"/>
    </contour>
  </outline>
</glyph>
<glyph name="uni12C8" format="2">
  <advance width="879"/>
  <unicode hex="12C8"/>
  <outline>
    <contour>
      <point x="468" y="570" type="line"/>
      <point x="446" y="521"/>
      <point x="342" y="249"/>
      <point x="342" y="165" type="curve" smooth="yes"/>
      <point x="342" y="121"/>
      <point x="348" y="92"/>
      <point x="359" y="72" type="curve"/>
      <point x="461" y="118" type="line"/>
      <point x="442" y="133"/>
      <point x="427" y="143"/>
      <point x="427" y="188" type="curve" smooth="yes"/>
      <point x="427" y="265"/>
      <point x="512" y="503"/>
      <point x="555" y="571" type="curve"/>
    </contour>
    <contour>
      <point x="80" y="218" type="curve" smooth="yes"/>
      <point x="80" y="129"/>
      <point x="198" y="63"/>
      <point x="317" y="63" type="curve" smooth="yes"/>
      <point x="366" y="63"/>
      <point x="409" y="73"/>
      <point x="449" y="98" type="curve"/>
      <point x="418" y="157" type="line"/>
      <point x="398" y="144"/>
      <point x="362" y="128"/>
      <point x="315" y="128" type="curve" smooth="yes"/>
      <point x="235" y="128"/>
      <point x="166" y="153"/>
      <point x="166" y="225" type="curve" smooth="yes"/>
      <point x="166" y="320"/>
      <point x="292" y="556"/>
      <point x="573" y="556" type="curve" smooth="yes"/>
      <point x="668" y="556"/>
      <point x="704" y="514"/>
      <point x="704" y="448" type="curve" smooth="yes"/>
      <point x="704" y="326"/>
      <point x="616" y="200"/>
      <point x="412" y="151" type="curve"/>
      <point x="422" y="87" type="line"/>
      <point x="557" y="140"/>
      <point x="670" y="204"/>
      <point x="705" y="239" type="curve" smooth="yes"/>
      <point x="774" y="308"/>
      <point x="791" y="409"/>
      <point x="791" y="471" type="curve" smooth="yes"/>
      <point x="791" y="561"/>
      <point x="747" y="612"/>
      <point x="623" y="612" type="curve" smooth="yes"/>
      <point x="482" y="612"/>
      <point x="332" y="553"/>
      <point x="240" y="493" type="curve" smooth="yes"/>
      <point x="164" y="444"/>
      <point x="80" y="304"/>
    </contour>
  </outline>
</glyph>
<glyph name="uni12D1" format="2">
  <advance width="834"/>
  <unicode hex="12D1"/>
  <outline>
    <contour>
      <point x="306" y="-5" type="curve" smooth="yes"/>
      <point x="336" y="-5"/>
      <point x="349" y="11"/>
      <point x="368" y="45" type="curve"/>
      <point x="309" y="77"/>
      <point x="247" y="320"/>
      <point x="189" y="482" type="curve" smooth="yes"/>
      <point x="165" y="548"/>
      <point x="143" y="564"/>
      <point x="120" y="564" type="curve" smooth="yes"/>
      <point x="87" y="564"/>
      <point x="61" y="543"/>
      <point x="61" y="515" type="curve"/>
      <point x="70" y="512"/>
      <point x="89" y="505"/>
      <point x="115" y="445" type="curve" smooth="yes"/>
      <point x="186" y="284"/>
      <point x="232" y="151"/>
      <point x="258" y="43" type="curve" smooth="yes"/>
      <point x="265" y="14"/>
      <point x="281" y="-5"/>
    </contour>
    <contour>
      <point x="319" y="8" type="line"/>
      <point x="445" y="190"/>
      <point x="597" y="442"/>
      <point x="597" y="526" type="curve" smooth="yes"/>
      <point x="597" y="583"/>
      <point x="575" y="611"/>
      <point x="507" y="611" type="curve" smooth="yes"/>
      <point x="430" y="611"/>
      <point x="181" y="569"/>
      <point x="120" y="564" type="curve"/>
      <point x="122" y="508" type="line"/>
      <point x="224" y="526"/>
      <point x="403" y="557"/>
      <point x="471" y="557" type="curve" smooth="yes"/>
      <point x="494" y="557"/>
      <point x="507" y="542"/>
      <point x="507" y="523" type="curve" smooth="yes"/>
      <point x="507" y="439"/>
      <point x="372" y="233"/>
      <point x="278" y="76" type="curve"/>
    </contour>
    <contour>
      <point x="739" y="318" type="curve"/>
      <point x="660" y="328" type="line"/>
      <point x="658" y="314"/>
      <point x="656" y="294"/>
      <point x="656" y="268" type="curve" smooth="yes"/>
      <point x="656" y="239"/>
      <point x="670" y="223"/>
      <point x="707" y="223" type="curve" smooth="yes"/>
      <point x="729" y="223"/>
      <point x="750" y="227"/>
      <point x="768" y="240" type="curve"/>
      <point x="757" y="256"/>
      <point x="751" y="279"/>
      <point x="750" y="305" type="curve" smooth="yes"/>
      <point x="749" y="329"/>
      <point x="751" y="358"/>
      <point x="759" y="380" type="curve"/>
      <point x="738" y="389"/>
      <point x="722" y="394"/>
      <point x="701" y="394" type="curve" smooth="yes"/>
      <point x="679" y="394"/>
      <point x="669" y="383"/>
      <point x="664" y="364" type="curve"/>
      <point x="613" y="349"/>
      <point x="563" y="349"/>
      <point x="480" y="331" type="curve"/>
      <point x="474" y="276" type="line"/>
      <point x="548" y="294"/>
      <point x="648" y="311"/>
    </contour>
  </outline>
</glyph>
<glyph name="uni12D2" format="2">
  <advance width="951"/>
  <unicode hex="12D2"/>
  <outline>
    <contour>
      <point x="306" y="37" type="curve" smooth="yes"/>
      <point x="336" y="37"/>
      <point x="349" y="53"/>
      <point x="368" y="87" type="curve"/>
      <point x="310" y="118"/>
      <point x="242" y="334"/>
      <point x="189" y="482" type="curve" smooth="yes"/>
      <point x="165" y="548"/>
      <point x="143" y="564"/>
      <point x="120" y="564" type="curve" smooth="yes"/>
      <point x="87" y="564"/>
      <point x="61" y="543"/>
      <point x="61" y="515" type="curve"/>
      <point x="70" y="512"/>
      <point x="89" y="505"/>
      <point x="115" y="445" type="curve" smooth="yes"/>
      <point x="180" y="298"/>
      <point x="227" y="182"/>
      <point x="256" y="85" type="curve" smooth="yes"/>
      <point x="265" y="56"/>
      <point x="280" y="37"/>
    </contour>
    <contour>
      <point x="319" y="50" type="line"/>
      <point x="438" y="222"/>
      <point x="597" y="449"/>
      <point x="597" y="526" type="curve" smooth="yes"/>
      <point x="597" y="583"/>
      <point x="575" y="611"/>
      <point x="507" y="611" type="curve" smooth="yes"/>
      <point x="430" y="611"/>
      <point x="181" y="569"/>
      <point x="120" y="564" type="curve"/>
      <point x="122" y="508" type="line"/>
      <point x="224" y="526"/>
      <point x="403" y="557"/>
      <point x="471" y="557" type="curve" smooth="yes"/>
      <point x="494" y="557"/>
      <point x="507" y="542"/>
      <point x="507" y="523" type="curve" smooth="yes"/>
      <point x="507" y="447"/>
      <point x="366" y="264"/>
      <point x="278" y="118" type="curve"/>
    </contour>
    <contour>
      <point x="619" y="78" type="curve" smooth="yes"/>
      <point x="619" y="114"/>
      <point x="699" y="252"/>
      <point x="699" y="286" type="curve" smooth="yes"/>
      <point x="699" y="308"/>
      <point x="687" y="316"/>
      <point x="655" y="316" type="curve" smooth="yes"/>
      <point x="623" y="316"/>
      <point x="496" y="308"/>
      <point x="461" y="308" type="curve"/>
      <point x="451" y="252" type="line"/>
      <point x="498" y="256"/>
      <point x="604" y="260"/>
      <point x="630" y="260" type="curve"/>
      <point x="618" y="284" type="line"/>
      <point x="601" y="226"/>
      <point x="527" y="88"/>
      <point x="527" y="51" type="curve" smooth="yes"/>
      <point x="527" y="14"/>
      <point x="555" y="-8"/>
      <point x="601" y="-8" type="curve" smooth="yes"/>
      <point x="631" y="-8"/>
      <point x="708" y="8"/>
      <point x="799" y="28" type="curve"/>
      <point x="793" y="51" type="line"/>
      <point x="792" y="-25"/>
      <point x="812" y="-49"/>
      <point x="867" y="-49" type="curve" smooth="yes"/>
      <point x="880" y="-49"/>
      <point x="898" y="-47"/>
      <point x="910" y="-43" type="curve"/>
      <point x="901" y="-19"/>
      <point x="897" y="24"/>
      <point x="900" y="51" type="curve"/>
      <point x="867" y="63"/>
      <point x="822" y="74"/>
      <point x="812" y="74" type="curve" smooth="yes"/>
      <point x="782" y="74"/>
      <point x="691" y="47"/>
      <point x="658" y="47" type="curve" smooth="yes"/>
      <point x="632" y="47"/>
      <point x="619" y="54"/>
    </contour>
  </outline>
</glyph>
<glyph name="uni12DB" format="2">
  <advance width="758"/>
  <unicode hex="12DB"/>
  <outline>
    <contour>
      <point x="569" y="399" type="line"/>
      <point x="560" y="400"/>
      <point x="551" y="402"/>
      <point x="515" y="396" type="curve" smooth="yes"/>
      <point x="407" y="380"/>
      <point x="329" y="369"/>
      <point x="171" y="360" type="curve"/>
      <point x="165" y="302" type="line"/>
      <point x="290" y="321"/>
      <point x="442" y="340"/>
      <point x="567" y="347" type="curve"/>
    </contour>
    <contour>
      <point x="399" y="12" type="curve"/>
      <point x="454" y="15"/>
      <point x="505" y="15"/>
      <point x="534" y="8" type="curve"/>
      <point x="549" y="35"/>
      <point x="548" y="68"/>
      <point x="486" y="68" type="curve" smooth="yes"/>
      <point x="464" y="68"/>
      <point x="427" y="65"/>
      <point x="410" y="60" type="curve" smooth="yes"/>
      <point x="391" y="55"/>
      <point x="382" y="32"/>
    </contour>
    <contour>
      <point x="118" y="164" type="curve" smooth="yes"/>
      <point x="157" y="164"/>
      <point x="177" y="182"/>
      <point x="179" y="226" type="curve" smooth="yes"/>
      <point x="184" y="352"/>
      <point x="283" y="542"/>
      <point x="283" y="582" type="curve" smooth="yes"/>
      <point x="283" y="610"/>
      <point x="257" y="621"/>
      <point x="234" y="621" type="curve" smooth="yes"/>
      <point x="196" y="621"/>
      <point x="172" y="601"/>
      <point x="167" y="573" type="curve"/>
      <point x="179" y="567"/>
      <point x="185" y="560"/>
      <point x="185" y="544" type="curve" smooth="yes"/>
      <point x="185" y="462"/>
      <point x="100" y="223"/>
      <point x="66" y="181" type="curve"/>
      <point x="70" y="171"/>
      <point x="90" y="164"/>
    </contour>
    <contour>
      <point x="531" y="52" type="line"/>
      <point x="546" y="220"/>
      <point x="597" y="391"/>
      <point x="664" y="536" type="curve"/>
      <point x="684" y="547"/>
      <point x="696" y="553"/>
      <point x="696" y="569" type="curve" smooth="yes"/>
      <point x="696" y="596"/>
      <point x="630" y="627"/>
      <point x="581" y="627" type="curve" smooth="yes"/>
      <point x="553" y="627"/>
      <point x="541" y="603"/>
      <point x="547" y="585" type="curve"/>
      <point x="571" y="577"/>
      <point x="583" y="568"/>
      <point x="583" y="549" type="curve" smooth="yes"/>
      <point x="583" y="497"/>
      <point x="435" y="124"/>
      <point x="435" y="39" type="curve"/>
    </contour>
  </outline>
</glyph>
<glyph name="uni12DC" format="2">
  <advance width="900"/>
  <unicode hex="12DC"/>
  <outline>
    <contour>
      <point x="685" y="391" type="curve"/>
      <point x="674" y="386"/>
      <point x="661" y="381"/>
      <point x="616" y="374" type="curve" smooth="yes"/>
      <point x="495" y="355"/>
      <point x="390" y="340"/>
      <point x="189" y="323" type="curve"/>
      <point x="183" y="265" type="line"/>
      <point x="329" y="284"/>
      <point x="519" y="313"/>
      <point x="668" y="321" type="curve"/>
      <point x="689" y="321"/>
      <point x="699" y="331"/>
      <point x="699" y="348" type="curve" smooth="yes"/>
      <point x="699" y="362"/>
      <point x="693" y="381"/>
    </contour>
    <contour>
      <point x="130" y="-2" type="curve" smooth="yes"/>
      <point x="169" y="-2"/>
      <point x="191" y="16"/>
      <point x="191" y="60" type="curve" smooth="yes"/>
      <point x="191" y="278"/>
      <point x="289" y="524"/>
      <point x="289" y="582" type="curve" smooth="yes"/>
      <point x="289" y="610"/>
      <point x="263" y="621"/>
      <point x="240" y="621" type="curve" smooth="yes"/>
      <point x="202" y="621"/>
      <point x="178" y="601"/>
      <point x="173" y="573" type="curve"/>
      <point x="185" y="567"/>
      <point x="191" y="560"/>
      <point x="191" y="544" type="curve" smooth="yes"/>
      <point x="191" y="428"/>
      <point x="99" y="46"/>
      <point x="78" y="15" type="curve"/>
      <point x="82" y="5"/>
      <point x="102" y="-2"/>
    </contour>
    <contour>
      <point x="830" y="109" type="curve" smooth="yes"/>
      <point x="830" y="168"/>
      <point x="766" y="229"/>
      <point x="625" y="271" type="curve"/>
      <point x="656" y="361"/>
      <point x="696" y="462"/>
      <point x="730" y="536" type="curve"/>
      <point x="750" y="547"/>
      <point x="762" y="553"/>
      <point x="762" y="569" type="curve" smooth="yes"/>
      <point x="762" y="596"/>
      <point x="696" y="627"/>
      <point x="647" y="627" type="curve" smooth="yes"/>
      <point x="619" y="627"/>
      <point x="607" y="603"/>
      <point x="613" y="585" type="curve"/>
      <point x="637" y="577"/>
      <point x="649" y="568"/>
      <point x="649" y="549" type="curve" smooth="yes"/>
      <point x="649" y="502"/>
      <point x="494" y="160"/>
      <point x="494" y="83" type="curve" smooth="yes"/>
      <point x="494" y="14"/>
      <point x="575" y="-11"/>
      <point x="643" y="-11" type="curve" smooth="yes"/>
      <point x="757" y="-11"/>
      <point x="830" y="45"/>
    </contour>
    <contour>
      <point x="580" y="89" type="curve" smooth="yes"/>
      <point x="580" y="156"/>
      <point x="614" y="212"/>
      <point x="635" y="212" type="curve" smooth="yes"/>
      <point x="681" y="212"/>
      <point x="745" y="154"/>
      <point x="745" y="114" type="curve" smooth="yes"/>
      <point x="745" y="78"/>
      <point x="712" y="49"/>
      <point x="648" y="49" type="curve" smooth="yes"/>
      <point x="604" y="49"/>
      <point x="580" y="66"/>
    </contour>
  </outline>
</glyph>
<glyph name="uni12DF" format="2">
  <advance width="768"/>
  <unicode hex="12DF"/>
  <outline>
    <contour>
      <point x="569" y="399" type="line"/>
      <point x="560" y="400"/>
      <point x="551" y="402"/>
      <point x="515" y="396" type="curve" smooth="yes"/>
      <point x="407" y="380"/>
      <point x="329" y="369"/>
      <point x="171" y="360" type="curve"/>
      <point x="165" y="302" type="line"/>
      <point x="290" y="321"/>
      <point x="442" y="340"/>
      <point x="567" y="347" type="curve"/>
    </contour>
    <contour>
      <point x="118" y="164" type="curve" smooth="yes"/>
      <point x="157" y="164"/>
      <point x="177" y="182"/>
      <point x="179" y="226" type="curve" smooth="yes"/>
      <point x="184" y="352"/>
      <point x="283" y="542"/>
      <point x="283" y="582" type="curve" smooth="yes"/>
      <point x="283" y="610"/>
      <point x="257" y="621"/>
      <point x="234" y="621" type="curve" smooth="yes"/>
      <point x="196" y="621"/>
      <point x="172" y="601"/>
      <point x="167" y="573" type="curve"/>
      <point x="179" y="567"/>
      <point x="185" y="560"/>
      <point x="185" y="544" type="curve" smooth="yes"/>
      <point x="185" y="462"/>
      <point x="100" y="223"/>
      <point x="66" y="181" type="curve"/>
      <point x="70" y="171"/>
      <point x="90" y="164"/>
    </contour>
    <contour>
      <point x="503" y="32" type="line"/>
      <point x="518" y="200"/>
      <point x="597" y="391"/>
      <point x="664" y="536" type="curve"/>
      <point x="684" y="547"/>
      <point x="696" y="553"/>
      <point x="696" y="569" type="curve" smooth="yes"/>
      <point x="696" y="596"/>
      <point x="630" y="627"/>
      <point x="581" y="627" type="curve" smooth="yes"/>
      <point x="553" y="627"/>
      <point x="541" y="603"/>
      <point x="547" y="585" type="curve"/>
      <point x="571" y="577"/>
      <point x="583" y="568"/>
      <point x="583" y="549" type="curve" smooth="yes"/>
      <point x="583" y="497"/>
      <point x="407" y="104"/>
      <point x="407" y="19" type="curve"/>
    </contour>
    <contour>
      <point x="412" y="-4"/>
      <point x="530" y="5"/>
      <point x="630" y="9" type="curve"/>
      <point x="574" y="26" type="line"/>
      <point x="573" y="-44"/>
      <point x="597" y="-71"/>
      <point x="696" y="-54" type="curve"/>
      <point x="691" y="-29"/>
      <point x="688" y="5"/>
      <point x="685" y="23" type="curve" smooth="yes"/>
      <point x="683" y="37"/>
      <point x="678" y="41"/>
      <point x="666" y="44" type="curve" smooth="yes"/>
      <point x="646" y="49"/>
      <point x="626" y="53"/>
      <point x="609" y="56" type="curve" smooth="yes"/>
      <point x="590" y="60"/>
      <point x="581" y="57"/>
      <point x="560" y="54" type="curve" smooth="yes"/>
      <point x="503" y="45"/>
      <point x="358" y="39"/>
      <point x="250" y="33" type="curve" smooth="yes"/>
      <point x="221" y="31"/>
      <point x="192" y="-21"/>
      <point x="192" y="-63" type="curve" smooth="yes"/>
      <point x="192" y="-87"/>
      <point x="226" y="-103"/>
      <point x="290" y="-93" type="curve"/>
      <point x="291" y="-61"/>
      <point x="302" y="-27"/>
      <point x="315" y="-7" type="curve"/>
    </contour>
  </outline>
</glyph>
<glyph name="uni12EA" format="2">
  <advance width="737"/>
  <unicode hex="12EA"/>
  <outline>
    <contour>
      <point x="338" y="-5" type="curve" smooth="yes"/>
      <point x="371" y="-5"/>
      <point x="390" y="11"/>
      <point x="407" y="42" type="curve"/>
      <point x="341" y="79"/>
      <point x="304" y="388"/>
      <point x="195" y="532" type="curve" smooth="yes"/>
      <point x="149" y="593"/>
      <point x="142" y="614"/>
      <point x="116" y="614" type="curve" smooth="yes"/>
      <point x="83" y="614"/>
      <point x="57" y="593"/>
      <point x="57" y="565" type="curve"/>
      <point x="68" y="562"/>
      <point x="76" y="554"/>
      <point x="121" y="495" type="curve" smooth="yes"/>
      <point x="223" y="361"/>
      <point x="261" y="163"/>
      <point x="290" y="43" type="curve" smooth="yes"/>
      <point x="297" y="14"/>
      <point x="313" y="-5"/>
    </contour>
    <contour>
      <point x="288" y="209" type="line"/>
      <point x="405" y="327"/>
      <point x="514" y="479"/>
      <point x="514" y="575" type="curve" smooth="yes"/>
      <point x="514" y="621"/>
      <point x="481" y="651"/>
      <point x="414" y="651" type="curve" smooth="yes"/>
      <point x="354" y="651"/>
      <point x="162" y="618"/>
      <point x="116" y="614" type="curve"/>
      <point x="118" y="558" type="line"/>
      <point x="195" y="572"/>
      <point x="341" y="597"/>
      <point x="395" y="597" type="curve" smooth="yes"/>
      <point x="418" y="597"/>
      <point x="431" y="582"/>
      <point x="431" y="563" type="curve" smooth="yes"/>
      <point x="431" y="517"/>
      <point x="353" y="368"/>
      <point x="263" y="278" type="curve"/>
    </contour>
    <contour>
      <point x="545" y="115" type="line"/>
      <point x="534" y="131"/>
      <point x="531" y="145"/>
      <point x="531" y="171" type="curve" smooth="yes"/>
      <point x="531" y="229"/>
      <point x="557" y="287"/>
      <point x="570" y="316" type="curve"/>
      <point x="549" y="325"/>
      <point x="521" y="329"/>
      <point x="500" y="329" type="curve" smooth="yes"/>
      <point x="475" y="329"/>
      <point x="457" y="306"/>
      <point x="445" y="230" type="curve"/>
      <point x="407" y="219"/>
      <point x="372" y="210"/>
      <point x="311" y="197" type="curve"/>
      <point x="305" y="139" type="line"/>
      <point x="366" y="154"/>
      <point x="426" y="173"/>
      <point x="500" y="179" type="curve"/>
      <point x="441" y="194" type="line"/>
      <point x="439" y="180"/>
      <point x="437" y="160"/>
      <point x="437" y="142" type="curve" smooth="yes"/>
      <point x="437" y="105"/>
      <point x="451" y="89"/>
      <point x="488" y="89" type="curve" smooth="yes"/>
      <point x="534" y="89"/>
      <point x="567" y="117"/>
      <point x="621" y="121" type="curve"/>
      <point x="550" y="141" type="line"/>
      <point x="549" y="71"/>
      <point x="575" y="43"/>
      <point x="682" y="61" type="curve"/>
      <point x="677" y="85"/>
      <point x="675" y="108"/>
      <point x="672" y="126" type="curve" smooth="yes"/>
      <point x="670" y="140"/>
      <point x="665" y="144"/>
      <point x="653" y="147" type="curve" smooth="yes"/>
      <point x="633" y="152"/>
      <point x="613" y="156"/>
      <point x="596" y="159" type="curve" smooth="yes"/>
      <point x="577" y="163"/>
      <point x="568" y="163"/>
      <point x="547" y="157" type="curve" smooth="yes"/>
      <point x="522" y="150"/>
      <point x="501" y="145"/>
      <point x="461" y="137" type="curve"/>
    </contour>
  </outline>
</glyph>
<glyph name="uni12F0" format="2">
  <advance width="647"/>
  <unicode hex="12F0"/>
  <outline>
    <contour>
      <point x="341" y="7" type="curve" smooth="yes"/>
      <point x="374" y="7"/>
      <point x="396" y="17"/>
      <point x="410" y="42" type="curve"/>
      <point x="344" y="79"/>
      <point x="307" y="388"/>
      <point x="198" y="532" type="curve" smooth="yes"/>
      <point x="152" y="593"/>
      <point x="145" y="614"/>
      <point x="119" y="614" type="curve" smooth="yes"/>
      <point x="86" y="614"/>
      <point x="60" y="593"/>
      <point x="60" y="565" type="curve"/>
      <point x="71" y="562"/>
      <point x="79" y="554"/>
      <point x="124" y="495" type="curve" smooth="yes"/>
      <point x="226" y="361"/>
      <point x="264" y="163"/>
      <point x="293" y="43" type="curve" smooth="yes"/>
      <point x="298" y="21"/>
      <point x="316" y="7"/>
    </contour>
    <contour>
      <point x="291" y="209" type="line"/>
      <point x="408" y="327"/>
      <point x="517" y="479"/>
      <point x="517" y="575" type="curve" smooth="yes"/>
      <point x="517" y="621"/>
      <point x="484" y="651"/>
      <point x="417" y="651" type="curve" smooth="yes"/>
      <point x="357" y="651"/>
      <point x="165" y="618"/>
      <point x="119" y="614" type="curve"/>
      <point x="121" y="558" type="line"/>
      <point x="198" y="572"/>
      <point x="344" y="597"/>
      <point x="398" y="597" type="curve" smooth="yes"/>
      <point x="421" y="597"/>
      <point x="434" y="582"/>
      <point x="434" y="563" type="curve" smooth="yes"/>
      <point x="434" y="517"/>
      <point x="356" y="368"/>
      <point x="266" y="278" type="curve"/>
    </contour>
    <contour>
      <point x="317" y="-4"/>
      <point x="435" y="5"/>
      <point x="535" y="9" type="curve"/>
      <point x="479" y="26" type="line"/>
      <point x="478" y="-44"/>
      <point x="502" y="-71"/>
      <point x="601" y="-54" type="curve"/>
      <point x="596" y="-29"/>
      <point x="593" y="5"/>
      <point x="590" y="23" type="curve" smooth="yes"/>
      <point x="588" y="37"/>
      <point x="583" y="41"/>
      <point x="571" y="44" type="curve" smooth="yes"/>
      <point x="551" y="49"/>
      <point x="531" y="53"/>
      <point x="514" y="56" type="curve" smooth="yes"/>
      <point x="495" y="60"/>
      <point x="486" y="57"/>
      <point x="465" y="54" type="curve" smooth="yes"/>
      <point x="408" y="45"/>
      <point x="263" y="39"/>
      <point x="155" y="33" type="curve" smooth="yes"/>
      <point x="126" y="31"/>
      <point x="97" y="-21"/>
      <point x="97" y="-63" type="curve" smooth="yes"/>
      <point x="97" y="-87"/>
      <point x="131" y="-103"/>
      <point x="195" y="-93" type="curve"/>
      <point x="196" y="-61"/>
      <point x="207" y="-27"/>
      <point x="220" y="-7" type="curve"/>
    </contour>
  </outline>
</glyph>
<glyph name="uni12F7" format="2">
  <advance width="773"/>
  <unicode hex="12F7"/>
  <outline>
    <contour>
      <point x="365" y="-19" type="curve"/>
      <point x="398" y="-16"/>
      <point x="572" y="6"/>
      <point x="626" y="10" type="curve"/>
      <point x="620" y="33" type="line"/>
      <point x="619" y="-43"/>
      <point x="639" y="-67"/>
      <point x="694" y="-67" type="curve" smooth="yes"/>
      <point x="707" y="-67"/>
      <point x="725" y="-65"/>
      <point x="737" y="-61" type="curve"/>
      <point x="728" y="-37"/>
      <point x="724" y="6"/>
      <point x="727" y="33" type="curve"/>
      <point x="694" y="45"/>
      <point x="649" y="56"/>
      <point x="639" y="56" type="curve" smooth="yes"/>
      <point x="618" y="56"/>
      <point x="404" y="32"/>
      <point x="352" y="27" type="curve"/>
      <point x="287" y="35"/>
      <point x="251" y="-2"/>
      <point x="251" y="-51" type="curve" smooth="yes"/>
      <point x="251" y="-81"/>
      <point x="272" y="-102"/>
      <point x="310" y="-102" type="curve" smooth="yes"/>
      <point x="321" y="-102"/>
      <point x="334" y="-100"/>
      <point x="348" y="-96" type="curve"/>
      <point x="344" y="-68"/>
      <point x="351" y="-33"/>
    </contour>
    <contour>
      <point x="336" y="248" type="line"/>
      <point x="447" y="360"/>
      <point x="562" y="489"/>
      <point x="562" y="575" type="curve" smooth="yes"/>
      <point x="562" y="621"/>
      <point x="529" y="651"/>
      <point x="462" y="651" type="curve" smooth="yes"/>
      <point x="405" y="651"/>
      <point x="223" y="618"/>
      <point x="179" y="614" type="curve"/>
      <point x="181" y="558" type="line"/>
      <point x="254" y="571"/>
      <point x="392" y="597"/>
      <point x="443" y="597" type="curve" smooth="yes"/>
      <point x="466" y="597"/>
      <point x="479" y="582"/>
      <point x="479" y="563" type="curve" smooth="yes"/>
      <point x="479" y="523"/>
      <point x="395" y="401"/>
      <point x="311" y="317" type="curve"/>
    </contour>
    <contour>
      <point x="179" y="144" type="curve"/>
      <point x="224" y="148"/>
      <point x="415" y="166"/>
      <point x="489" y="171" type="curve"/>
      <point x="478" y="187" type="line"/>
      <point x="471" y="115"/>
      <point x="459" y="63"/>
      <point x="459" y="32" type="curve" smooth="yes"/>
      <point x="459" y="14"/>
      <point x="474" y="3"/>
      <point x="502" y="3" type="curve" smooth="yes"/>
      <point x="519" y="3"/>
      <point x="535" y="4"/>
      <point x="548" y="12" type="curve"/>
      <point x="544" y="19"/>
      <point x="539" y="25"/>
      <point x="539" y="47" type="curve" smooth="yes"/>
      <point x="539" y="84"/>
      <point x="556" y="158"/>
      <point x="556" y="176" type="curve" smooth="yes"/>
      <point x="556" y="197"/>
      <point x="532" y="215"/>
      <point x="471" y="215" type="curve" smooth="yes"/>
      <point x="443" y="215"/>
      <point x="236" y="196"/>
      <point x="166" y="190" type="curve"/>
      <point x="101" y="198"/>
      <point x="65" y="161"/>
      <point x="65" y="112" type="curve" smooth="yes"/>
      <point x="65" y="82"/>
      <point x="86" y="61"/>
      <point x="124" y="61" type="curve" smooth="yes"/>
      <point x="135" y="61"/>
      <point x="148" y="63"/>
      <point x="162" y="67" type="curve"/>
      <point x="158" y="95"/>
      <point x="165" y="130"/>
    </contour>
    <contour>
      <point x="355" y="183" type="line"/>
      <point x="352" y="217"/>
      <point x="351" y="254"/>
      <point x="351" y="291" type="curve"/>
      <point x="331" y="380"/>
      <point x="291" y="464"/>
      <point x="255" y="529" type="curve" smooth="yes"/>
      <point x="219" y="594"/>
      <point x="204" y="614"/>
      <point x="179" y="614" type="curve" smooth="yes"/>
      <point x="146" y="614"/>
      <point x="120" y="593"/>
      <point x="120" y="565" type="curve"/>
      <point x="131" y="562"/>
      <point x="150" y="549"/>
      <point x="184" y="495" type="curve" smooth="yes"/>
      <point x="230" y="422"/>
      <point x="276" y="309"/>
      <point x="276" y="266" type="curve" smooth="yes"/>
      <point x="276" y="236"/>
      <point x="276" y="207"/>
      <point x="278" y="178" type="curve"/>
    </contour>
  </outline>
</glyph>
<glyph name="uni130B" format="2">
  <advance width="602"/>
  <unicode hex="130B"/>
  <outline>
    <contour>
      <point x="525" y="549" type="curve" smooth="yes"/>
      <point x="525" y="581"/>
      <point x="503" y="597"/>
      <point x="464" y="597" type="curve" smooth="yes"/>
      <point x="397" y="597"/>
      <point x="249" y="557"/>
      <point x="213" y="557" type="curve" smooth="yes"/>
      <point x="149" y="557"/>
      <point x="127" y="522"/>
      <point x="127" y="474" type="curve" smooth="yes"/>
      <point x="127" y="426"/>
      <point x="162" y="409"/>
      <point x="229" y="419" type="curve"/>
      <point x="230" y="451"/>
      <point x="241" y="495"/>
      <point x="254" y="515" type="curve"/>
      <point x="314" y="533"/>
      <point x="363" y="543"/>
      <point x="420" y="543" type="curve" smooth="yes"/>
      <point x="435" y="543"/>
      <point x="444" y="537"/>
      <point x="444" y="521" type="curve" smooth="yes"/>
      <point x="444" y="425"/>
      <point x="264" y="140"/>
      <point x="264" y="23" type="curve" smooth="yes"/>
      <point x="264" y="4"/>
      <point x="269" y="-2"/>
      <point x="285" y="-2" type="curve" smooth="yes"/>
      <point x="321" y="-2"/>
      <point x="340" y="9"/>
      <point x="355" y="23" type="curve"/>
      <point x="355" y="181"/>
      <point x="525" y="441"/>
    </contour>
    <contour>
      <point x="317" y="55" type="line"/>
      <point x="269" y="48"/>
      <point x="193" y="41"/>
      <point x="97" y="41" type="curve" smooth="yes"/>
      <point x="68" y="41"/>
      <point x="38" y="-12"/>
      <point x="38" y="-53" type="curve" smooth="yes"/>
      <point x="38" y="-85"/>
      <point x="75" y="-104"/>
      <point x="147" y="-93" type="curve"/>
      <point x="148" y="-61"/>
      <point x="159" y="-27"/>
      <point x="172" y="-7" type="curve"/>
      <point x="201" y="-4"/>
      <point x="242" y="-2"/>
      <point x="285" y="-2" type="curve"/>
    </contour>
  </outline>
</glyph>
<glyph name="Z" format="2">
  <advance width="573"/>
  <outline>
    <contour>
      <point x="497" y="35" type="qcurve"/>
      <point x="497" y="26"/>
      <point x="495" y="13"/>
      <point x="491" y="4"/>
      <point x="484" y="0"/>
      <point x="480" y="0" type="qcurve"/>
      <point x="107" y="0" type="line"/>
      <point x="94" y="0"/>
      <point x="79" y="16"/>
      <point x="79" y="33" type="qcurve"/>
      <point x="79" y="51" type="line"/>
      <point x="79" y="57"/>
      <point x="80" y="68"/>
      <point x="85" y="80"/>
      <point x="94" y="95"/>
      <point x="100" y="106" type="qcurve"/>
      <point x="392" y="562" type="line"/>
      <point x="103" y="562" type="line"/>
      <point x="99" y="562"/>
      <point x="92" y="566"/>
      <point x="87" y="574"/>
      <point x="85" y="587"/>
      <point x="85" y="596" type="qcurve"/>
      <point x="85" y="606"/>
      <point x="87" y="619"/>
      <point x="92" y="628"/>
      <point x="99" y="632"/>
      <point x="103" y="632" type="qcurve"/>
      <point x="455" y="632" type="line"/>
      <point x="468" y="632"/>
      <point x="483" y="617"/>
      <point x="483" y="601" type="qcurve"/>
      <point x="483" y="582" type="line"/>
      <point x="483" y="574"/>
      <point x="481" y="562"/>
      <point x="476" y="549"/>
      <point x="468" y="535"/>
      <point x="461" y="525" type="qcurve"/>
      <point x="171" y="71" type="line"/>
      <point x="480" y="71" type="line"/>
      <point x="488" y="71"/>
      <point x="497" y="54"/>
    </contour>
  </outline>
</glyph>
